<svg width="678" height="742" viewBox="0 0 678 742" fill="none" xmlns="http://www.w3.org/2000/svg">
<path d="M625.021 48.0481C625.021 61.1556 635.647 71.7812 648.755 71.7812H653.454C666.562 71.7812 677.188 82.4069 677.188 95.5144V717.424C677.188 730.521 666.578 741.143 653.48 741.157L12.0228 741.861C5.8292 741.868 0.804688 736.849 0.804688 730.655C0.804688 724.466 5.82168 719.449 12.0105 719.449H273.586C286.694 719.449 297.319 708.824 297.319 695.716V444.294C297.319 431.186 286.694 420.561 273.586 420.561H24.5378C11.4304 420.561 0.804688 409.935 0.804688 396.827V95.6999C0.804688 82.5925 11.4304 71.9668 24.5378 71.9668H227.367C240.474 71.9668 251.1 61.3411 251.1 48.2337V24.6999C251.1 11.5925 261.725 0.966797 274.833 0.966797H601.288C614.396 0.966797 625.021 11.5925 625.021 24.6999V48.0481Z" fill="#ED313A"/>
<path d="M10.7637 381.373L13.6393 395.03C14.7741 400.419 19.2761 404.448 24.7581 404.981L57.4317 408.154H23.3719C16.4086 408.154 10.7637 402.509 10.7637 395.546V381.373Z" fill="white"/>
<rect x="281.873" y="17.6543" width="4.44996" height="4.44996" rx="0.74166" fill="white"/>
<rect x="297.61" y="17.6543" width="4.44996" height="4.44996" rx="0.74166" fill="white"/>
<rect x="305.479" y="17.6543" width="4.44996" height="4.44996" rx="0.74166" fill="white"/>
<rect x="274.004" y="25.5225" width="4.44996" height="4.44996" rx="0.74166" fill="white"/>
<rect x="281.873" y="25.5225" width="4.44996" height="4.44996" rx="0.74166" fill="white"/>
<rect x="289.741" y="25.5225" width="4.44996" height="4.44996" rx="0.74166" fill="white"/>
<rect x="297.61" y="25.5225" width="4.44996" height="4.44996" rx="0.74166" fill="white"/>
<rect x="305.479" y="25.5225" width="4.44996" height="4.44996" rx="0.74166" fill="white"/>
<rect x="274.004" y="33.3906" width="4.44996" height="4.44996" rx="0.74166" fill="white"/>
<rect x="281.873" y="33.3906" width="4.44996" height="4.44996" rx="0.74166" fill="white"/>
<rect x="289.741" y="33.3906" width="4.44996" height="4.44996" rx="0.74166" fill="white"/>
<rect x="297.61" y="33.3906" width="4.44996" height="4.44996" rx="0.74166" fill="white"/>
<rect x="274.004" y="41.2598" width="4.44996" height="4.44996" rx="0.74166" fill="white"/>
<rect x="289.741" y="41.2598" width="4.44996" height="4.44996" rx="0.74166" fill="white"/>
<rect x="297.61" y="41.2598" width="4.44996" height="4.44996" rx="0.74166" fill="white"/>
<rect x="305.479" y="41.2598" width="4.44996" height="4.44996" rx="0.74166" fill="white"/>
<rect x="281.873" y="49.1279" width="4.44996" height="4.44996" rx="0.74166" fill="white"/>
<rect x="289.741" y="49.1279" width="4.44996" height="4.44996" rx="0.74166" fill="white"/>
<rect x="297.61" y="49.1279" width="4.44996" height="4.44996" rx="0.74166" fill="white"/>
<rect x="591.517" y="53.5781" width="4.44996" height="4.44996" rx="0.74166" transform="rotate(180 591.517 53.5781)" fill="white"/>
<rect x="575.779" y="53.5781" width="4.44996" height="4.44996" rx="0.74166" transform="rotate(180 575.779 53.5781)" fill="white"/>
<rect x="567.91" y="53.5781" width="4.44996" height="4.44996" rx="0.74166" transform="rotate(180 567.91 53.5781)" fill="white"/>
<rect x="599.385" y="45.71" width="4.44996" height="4.44996" rx="0.74166" transform="rotate(180 599.385 45.71)" fill="white"/>
<rect x="591.517" y="45.71" width="4.44996" height="4.44996" rx="0.74166" transform="rotate(180 591.517 45.71)" fill="white"/>
<rect x="583.647" y="45.71" width="4.44996" height="4.44996" rx="0.74166" transform="rotate(180 583.647 45.71)" fill="white"/>
<rect x="575.779" y="45.71" width="4.44996" height="4.44996" rx="0.74166" transform="rotate(180 575.779 45.71)" fill="white"/>
<rect x="567.91" y="45.71" width="4.44996" height="4.44996" rx="0.74166" transform="rotate(180 567.91 45.71)" fill="white"/>
<rect x="599.385" y="37.8408" width="4.44996" height="4.44996" rx="0.74166" transform="rotate(180 599.385 37.8408)" fill="white"/>
<rect x="591.517" y="37.8408" width="4.44996" height="4.44996" rx="0.74166" transform="rotate(180 591.517 37.8408)" fill="white"/>
<rect x="583.647" y="37.8408" width="4.44996" height="4.44996" rx="0.74166" transform="rotate(180 583.647 37.8408)" fill="white"/>
<rect x="575.779" y="37.8408" width="4.44996" height="4.44996" rx="0.74166" transform="rotate(180 575.779 37.8408)" fill="white"/>
<rect x="599.385" y="29.9727" width="4.44996" height="4.44996" rx="0.74166" transform="rotate(180 599.385 29.9727)" fill="white"/>
<rect x="583.647" y="29.9727" width="4.44996" height="4.44996" rx="0.74166" transform="rotate(180 583.647 29.9727)" fill="white"/>
<rect x="575.779" y="29.9727" width="4.44996" height="4.44996" rx="0.74166" transform="rotate(180 575.779 29.9727)" fill="white"/>
<rect x="567.91" y="29.9727" width="4.44996" height="4.44996" rx="0.74166" transform="rotate(180 567.91 29.9727)" fill="white"/>
<rect x="591.517" y="22.1035" width="4.44996" height="4.44996" rx="0.74166" transform="rotate(180 591.517 22.1035)" fill="white"/>
<rect x="583.647" y="22.1035" width="4.44996" height="4.44996" rx="0.74166" transform="rotate(180 583.647 22.1035)" fill="white"/>
<rect x="575.779" y="22.1035" width="4.44996" height="4.44996" rx="0.74166" transform="rotate(180 575.779 22.1035)" fill="white"/>
<rect width="4.44996" height="4.44996" rx="0.74166" transform="matrix(1 0 0 -1 316.461 519.55)" fill="white"/>
<rect width="4.44996" height="4.44996" rx="0.74166" transform="matrix(1 0 0 -1 332.197 519.55)" fill="white"/>
<rect width="4.44996" height="4.44996" rx="0.74166" transform="matrix(1 0 0 -1 340.066 519.55)" fill="white"/>
<rect width="4.44996" height="4.44996" rx="0.74166" transform="matrix(1 0 0 -1 308.592 511.681)" fill="white"/>
<rect width="4.44996" height="4.44996" rx="0.74166" transform="matrix(1 0 0 -1 316.461 511.681)" fill="white"/>
<rect width="4.44996" height="4.44996" rx="0.74166" transform="matrix(1 0 0 -1 324.329 511.681)" fill="white"/>
<rect width="4.44996" height="4.44996" rx="0.74166" transform="matrix(1 0 0 -1 332.197 511.681)" fill="white"/>
<rect width="4.44996" height="4.44996" rx="0.74166" transform="matrix(1 0 0 -1 340.066 511.681)" fill="white"/>
<rect width="4.44996" height="4.44996" rx="0.74166" transform="matrix(1 0 0 -1 308.592 503.812)" fill="white"/>
<rect width="4.44996" height="4.44996" rx="0.74166" transform="matrix(1 0 0 -1 316.461 503.812)" fill="white"/>
<rect width="4.44996" height="4.44996" rx="0.74166" transform="matrix(1 0 0 -1 324.329 503.812)" fill="white"/>
<rect width="4.44996" height="4.44996" rx="0.74166" transform="matrix(1 0 0 -1 332.197 503.812)" fill="white"/>
<rect width="4.44996" height="4.44996" rx="0.74166" transform="matrix(1 0 0 -1 308.592 495.944)" fill="white"/>
<rect width="4.44996" height="4.44996" rx="0.74166" transform="matrix(1 0 0 -1 324.329 495.944)" fill="white"/>
<rect width="4.44996" height="4.44996" rx="0.74166" transform="matrix(1 0 0 -1 332.197 495.944)" fill="white"/>
<rect width="4.44996" height="4.44996" rx="0.74166" transform="matrix(1 0 0 -1 340.066 495.944)" fill="white"/>
<rect width="4.44996" height="4.44996" rx="0.74166" transform="matrix(1 0 0 -1 316.461 488.075)" fill="white"/>
<rect width="4.44996" height="4.44996" rx="0.74166" transform="matrix(1 0 0 -1 324.329 488.075)" fill="white"/>
<rect width="4.44996" height="4.44996" rx="0.74166" transform="matrix(1 0 0 -1 332.197 488.075)" fill="white"/>
<rect x="635" y="1" width="43" height="61" rx="21.5" fill="white"/>
</svg>
