<svg width="43" height="43" viewBox="0 0 43 43" fill="none" xmlns="http://www.w3.org/2000/svg">
<path fill-rule="evenodd" clip-rule="evenodd" d="M36.705 20.7372C36.9527 20.9852 37.0918 21.3214 37.0918 21.6719C37.0918 22.0225 36.9527 22.3587 36.705 22.6067L26.1229 33.1887C26.0018 33.3187 25.8558 33.4229 25.6936 33.4952C25.5313 33.5675 25.3561 33.6064 25.1785 33.6095C25.0009 33.6126 24.8245 33.58 24.6598 33.5134C24.4951 33.4469 24.3455 33.3479 24.2199 33.2223C24.0943 33.0967 23.9953 32.9471 23.9287 32.7824C23.8622 32.6176 23.8295 32.4412 23.8327 32.2636C23.8358 32.086 23.8747 31.9109 23.947 31.7486C24.0193 31.5863 24.1235 31.4403 24.2535 31.3192L32.578 22.9947H7.55152C7.2007 22.9947 6.86426 22.8553 6.61619 22.6073C6.36813 22.3592 6.22877 22.0228 6.22877 21.6719C6.22877 21.3211 6.36813 20.9847 6.61619 20.7366C6.86426 20.4886 7.2007 20.3492 7.55152 20.3492H32.578L24.2535 12.0247C24.1235 11.9036 24.0193 11.7576 23.947 11.5953C23.8747 11.433 23.8358 11.2579 23.8327 11.0803C23.8295 10.9027 23.8622 10.7263 23.9287 10.5615C23.9953 10.3968 24.0943 10.2472 24.2199 10.1216C24.3455 9.99601 24.4951 9.89699 24.6598 9.83046C24.8245 9.76393 25.0009 9.73126 25.1785 9.7344C25.3561 9.73753 25.5313 9.77641 25.6936 9.8487C25.8558 9.921 26.0018 10.0252 26.1229 10.1552L36.705 20.7372Z" fill="#ED313A"/>
</svg>
