<svg width="1086" height="1339" viewBox="0 0 1086 1339" fill="none" xmlns="http://www.w3.org/2000/svg">
<path fill-rule="evenodd" clip-rule="evenodd" d="M177.918 347.306L135.675 231.238C135.217 229.934 134.398 227.71 133.217 224.565L134.323 224.119L136.774 230.84C147.52 260.742 154.324 279.622 157.185 287.48C159.162 292.918 168.856 319.528 178.914 346.942L177.918 347.306ZM199.105 341.615L196.867 325.673L197.89 325.529C198.625 330.712 199.387 336.06 200.149 341.436L199.105 341.615ZM228.112 339.871L228.73 331.035L229.773 331.09C229.574 334.014 229.368 336.973 229.169 339.932L228.112 339.871ZM313.532 379.855L319.937 374.363L320.912 375.489L314.555 380.981C314.218 380.59 313.875 380.219 313.532 379.855ZM338.66 419.675L344.756 417.471L393.343 399.868L393.961 401.323C372.136 409.219 352.267 416.428 339.243 421.089C339.037 420.609 338.852 420.121 338.66 419.641V419.675ZM344.303 493.822L386.464 503.64L493.181 528.506L492.618 529.969C430.657 515.551 363.856 499.987 359.572 498.889C357.567 498.374 351.725 496.98 343.987 495.161C344.097 494.694 344.2 494.248 344.303 493.801V493.822ZM336.559 517.165L339.531 518.538L339.037 519.835L335.996 518.4C336.181 517.954 336.36 517.549 336.559 517.123V517.165ZM321.613 542.375L327.441 546.782L326.556 547.874C324.874 546.59 322.924 545.128 320.768 543.466C321.057 543.073 321.338 542.695 321.613 542.333V542.375ZM286.647 573.846L298.51 592.788L297.577 593.351C294.027 587.666 289.661 580.704 285.706 574.409L286.647 573.846ZM265.446 584.144C274.371 608.647 283.653 634.001 283.653 634.001L309.667 705.237L308.513 705.677C293.993 665.974 277.536 620.915 276.596 618.094C275.58 615.052 269.463 598.301 264.416 584.522L265.446 584.144ZM235.437 591.277L236.22 596.818L235.142 596.948C234.874 595.074 234.607 593.213 234.352 591.394L235.437 591.277ZM189.308 588.016C187.372 596.303 185.546 604.15 183.926 611.098L182.511 610.803C183.521 606.683 185.573 597.971 188.004 587.659L189.308 588.016ZM141.456 563.706C123.606 587.302 108.879 606.773 108.879 606.773C108.879 606.773 54.0173 679.258 16.93 728.291L15.7423 727.351C58.5416 670.745 120.784 588.401 124.217 584.123C126.036 581.824 132.579 573.228 140.46 562.841L141.456 563.706ZM123.654 545.965C102.165 564.557 84.7815 579.606 84.7815 579.606L27.5028 629.195L26.4936 628.001C65.8945 593.879 101.622 562.964 104.43 560.644C106.538 558.9 113.802 552.652 122.789 544.853C123.091 545.258 123.379 545.615 123.674 545.965H123.654ZM101.753 506.75C66.4301 519.458 7.69598 540.74 7.69598 540.74L-110.651 583.409L-111.056 582.242L-110.37 581.988C-94.881 576.4 51.477 523.371 55.5894 521.888L101.279 505.315C101.451 505.795 101.609 506.283 101.773 506.75H101.753ZM95.8486 480.709C70.5356 484.142 30.4412 489.716 8.30011 492.785L8.12848 491.412L43.0806 486.558L95.6838 479.219C95.7524 479.7 95.8142 480.194 95.8691 480.709H95.8486ZM98.121 437.807C73.7211 432.067 32.597 422.476 3.72772 415.748L4.01605 414.375L30.7914 420.609L98.4712 436.324C98.3682 436.818 98.2584 437.312 98.1279 437.807H98.121ZM107.424 411.182C68.9772 393.078 -8.85669 356.609 -8.85669 356.609L-150.285 290.158L-149.825 289.011L-142.761 292.341C-125 300.662 42.4352 379.079 47.1312 381.29C48.9025 382.121 75.465 394.54 108.11 409.823L107.424 411.182ZM119.528 391.087L106.744 381.379L107.595 380.157L120.441 389.865L119.528 391.087ZM-96.515 735.974L-96.2198 736.324C-131.515 766.882 -193.778 820.769 -205.463 830.882C-221.583 844.812 -361.405 965.651 -372.163 974.94L-458.504 1049.56L-459.19 1048.47C-459.19 1048.47 -384.837 984.476 -376.042 976.876C-370.179 971.81 -357.302 960.637 -337.411 943.359C-266.829 881.95 -228.522 848.638 -222.489 843.425C-216.832 838.53 -199.421 823.557 -186.308 812.229L-186.487 812.03L-97.2358 734.45L-96.1786 735.672L-96.515 735.974ZM42.6961 258.178L42.3666 257.801L43.5886 256.744L83.985 303.209L82.7629 304.273L81.9323 303.319L81.7881 303.449L53.8044 271.127L42.6481 258.22L42.6961 258.178ZM433.135 278.157L417.544 291.668L366.259 336.246L365.195 335.024L432.476 276.557L433.54 277.779L433.135 278.157ZM-90.2606 439.907L-90.1713 438.63L15.5981 446.182L15.502 447.556L-5.99377 446.018L-90.2606 439.907ZM-253.494 428.236L-254.277 428.188C-329.44 423.039 -370.616 420.165 -377.807 419.565C-388.599 418.652 -470.408 412.809 -477.439 412.301C-482.13 411.958 -494.808 410.979 -515.473 409.363L-515.157 407.667C-449.459 412.304 -410.876 415.05 -399.406 415.906L-253.384 426.527L-253.494 428.236ZM530.055 484.801C511.333 483.428 448.603 478.993 398.114 475.368L398.334 473.802L526.142 482.995L530.261 483.29L530.055 484.801ZM589.977 489.215L590.203 487.602C625.904 490.17 665.037 492.977 674.436 493.664L859.412 507.162L955.227 514.151C955.069 515.009 954.986 515.434 954.986 515.434C954.986 515.434 872.601 509.256 862.879 508.514L819.929 505.486C741.356 500.067 698.71 497.129 691.991 496.671C681.947 495.943 638.687 492.655 634.644 492.49C632.721 492.38 612.077 490.877 589.977 489.25V489.215ZM206.005 657.179C207.2 639.905 208.065 627.493 208.216 626.03C208.463 623.483 209.294 611.688 210.117 599.598H211.209C209.63 622.419 208.195 643.407 208.195 643.407C208.195 643.407 207.831 648.707 207.248 657.179H206.005ZM201.11 728.758V730.049H202.277C200.609 754.25 199.215 774.496 199.098 776.13C198.803 780.352 192.233 875.535 191.306 889.17C190.379 902.805 182.086 1021.1 181.447 1030.2C181.022 1036.27 179.319 1060.62 176.339 1103.25L175.323 1103.17C175.323 1103.17 179.868 1040.38 180.39 1032.94C180.733 1027.97 181.47 1017.06 182.601 1000.2C186.551 940.318 188.702 907.821 189.054 902.709C189.59 895.047 191.999 862.058 192.109 858.983C192.219 855.907 196.833 791.419 197.423 783.057C197.609 779.865 199.194 756.515 201.11 728.758ZM232.005 284.157L235.314 236.786L236.398 236.841C234.961 256.316 234.025 269.193 233.59 275.473C233.481 276.976 233.275 280.004 232.986 284.178L232.005 284.157ZM238.444 189.922C238.609 187.258 238.785 184.398 238.973 181.34C242.726 124.068 244.827 92.6864 245.275 87.194C245.962 78.9555 250.212 16.5964 250.589 11.2345C250.836 7.66443 251.553 -2.00443 252.738 -17.7721L254.111 -17.6829C250.733 32.3893 248.74 61.801 248.132 70.5522L239.776 190.011L238.444 189.922ZM598.435 133.488L599.424 134.628L590.615 142.241C553.084 174.477 529.378 194.858 519.496 203.385C514.979 207.285 498.838 221.235 478.468 238.907L477.63 237.939L589.812 141.04C591.478 139.584 594.352 137.067 598.435 133.488ZM643.603 94.0663C702.408 42.9049 734.854 14.7451 740.942 9.58679C750.752 1.27271 824.385 -62.5006 830.721 -67.993C834.951 -71.6546 846.413 -81.4951 865.11 -97.5146L866.044 -96.0797C806.951 -44.8175 772.237 -14.7101 761.902 -5.75757L644.784 95.4532L643.603 94.0663ZM397.057 665.651L469.509 749.341C473.82 754.332 571.159 866.74 585.095 882.874L729.154 1049.58L803.767 1135.92L802.676 1136.61C802.676 1136.61 738.676 1062.3 731.124 1053.51C726.057 1047.65 714.885 1034.77 697.607 1014.87C636.193 944.275 602.868 905.961 597.632 899.928C589.812 890.873 556.213 851.801 553.006 848.245C549.8 844.689 483.988 768.379 475.427 758.5C471.232 753.639 433.643 710.276 395.876 666.681L397.057 665.651ZM-41.5844 160.751L-104.747 87.6334C-108.669 83.1022 -120.34 69.7489 -139.761 47.5734C-198.511 -19.937 -230.664 -56.9602 -236.22 -63.4962C-244.514 -73.3069 -308.308 -146.946 -313.8 -153.283C-317.462 -157.507 -327.302 -168.968 -343.322 -187.665L-341.88 -188.599C-290.595 -129.492 -260.483 -94.7775 -251.544 -84.4564L-103.525 86.8027C-71.2844 124.334 -50.9031 148.04 -42.3807 157.922L-40.6438 159.934L-41.5844 160.751ZM-264.479 639.343C-311.191 656.392 -337.28 665.868 -342.745 667.772C-352.975 671.329 -430.087 699.264 -436.719 701.653C-441.141 703.246 -453.119 707.51 -472.653 714.444L-473.058 712.769C-411.159 690.277 -374.798 677.08 -363.973 673.175L-265.11 637.523L-264.479 639.343ZM515.226 357.391L514.628 356.018C539.399 347.093 633.703 312.938 648.67 307.541L823.121 244.599L913.491 212.015L913.8 213.285C913.8 213.285 836.042 241.111 826.842 244.427C820.7 246.638 807.216 251.537 786.391 259.126C712.395 286.13 672.232 300.776 665.902 303.065C656.428 306.498 615.571 321.066 611.809 322.563C608.047 324.06 528.222 352.702 517.876 356.437L515.226 357.391ZM334.664 773.693C344.502 800.633 364.542 855.495 368.119 865.333C372.795 878.178 413.356 989.598 416.473 998.18L441.518 1066.99L440.557 1067.34C440.557 1067.34 419.171 1008.11 416.617 1001.11C414.923 996.438 411.159 986.168 405.323 970.299C384.567 914.002 373.316 883.444 371.573 878.625C368.943 871.409 357.732 840.295 356.578 837.432C355.631 835.07 340.376 793.005 333.531 774.118L334.664 773.693ZM98.9586 131.806C94.6425 120.034 92.0795 112.999 91.2693 110.701C88.5231 102.902 67.0685 44.1956 65.2286 39.1495C64.0065 35.7854 60.7294 26.6589 55.3973 11.77L56.6674 11.31C73.95 58.4345 84.0903 86.1161 87.0883 94.3547L100.496 131.202L98.9586 131.806ZM109.669 697.424L111.083 698.111L56.9351 813.519C54.134 819.485 -8.97345 954.145 -18.0427 973.43C-27.112 992.715 -105.694 1159.97 -111.736 1172.84L-160.268 1276.12L-161.352 1275.44C-161.352 1275.44 -119.473 1186.73 -114.516 1176.22C-111.221 1169.2 -103.998 1153.76 -92.8488 1129.88C-53.3174 1045.06 -31.856 999.04 -28.4645 991.809C-23.3771 980.982 -1.34589 934.393 0.583313 930.02C2.51251 925.646 45.4698 834.452 51.0308 822.63C54.0242 816.252 83.0239 754.312 109.669 697.424ZM324.874 239.044L326.103 239.731L300.103 295.238C299.629 296.241 295.496 305.083 289.242 318.45L287.965 317.764C305.465 280.471 324.778 239.216 324.778 239.216L324.874 239.044ZM350.393 184.718L427.911 19.7408C430.46 14.317 437.916 -1.76645 450.278 -28.5097C488.052 -109.646 508.797 -154.075 512.514 -161.796C518.095 -173.385 559.419 -261.62 562.982 -269.199C565.357 -274.234 571.827 -287.883 582.391 -310.145L583.832 -309.204C550.709 -238.348 531.238 -196.727 525.421 -184.342C519.604 -171.957 487.514 -103.659 429.153 20.5509C407.957 65.2726 394.59 93.5354 389.052 105.339C385.503 112.891 369.238 147.596 351.56 185.336L350.393 184.718ZM-267.115 235.488L-276.589 231.108C-357.725 193.339 -402.154 172.594 -409.876 168.872C-421.464 163.291 -509.699 121.968 -517.279 118.411C-522.314 116.036 -535.962 109.564 -558.225 98.9958L-557.291 97.5609C-486.407 130.666 -444.782 150.134 -432.415 155.965L-266.476 233.937L-267.115 235.488ZM594.611 639.809L574.591 630.362C568.46 627.479 510.935 600.559 455.942 574.793L456.498 573.331L565.481 624.424L595.208 638.368L594.611 639.809ZM711.53 694.671L712.1 693.188C718.176 696.037 722.782 698.193 725.343 699.367L924.758 793.06L1028.04 841.592C1027.57 842.32 1027.36 842.677 1027.36 842.677C1027.36 842.677 938.653 800.798 928.135 795.841C921.123 792.545 905.678 785.325 881.8 774.18C796.984 734.663 750.968 713.208 743.75 709.816C738.47 707.379 724.746 700.898 711.537 694.671H711.53ZM-153.835 515.091L-209.96 522.808C-214.958 523.494 -229.73 525.618 -254.277 529.179C-328.881 539.761 -369.758 545.501 -376.908 546.398C-387.652 547.771 -468.905 559.044 -475.866 560.005C-480.521 560.641 -493.126 562.321 -513.681 565.044L-513.723 563.314C-448.51 554.192 -410.2 548.844 -398.795 547.27L-209.994 521.318C-186.336 518.16 -167.669 515.661 -153.993 513.821L-153.835 515.091ZM591.686 412.329C566.229 415.817 535.946 419.936 529.698 420.794C525.579 421.364 495.735 425.517 460.089 430.467L459.904 428.923L520.505 420.533L591.487 410.695L591.686 412.329ZM712.072 395.646L711.88 394.074L851.524 374.85L946.693 361.806C946.693 362.671 946.727 363.11 946.727 363.11C946.727 363.11 864.884 374.157 855.197 375.468C848.739 376.361 834.525 378.349 812.555 381.434L712.072 395.646ZM183.109 227.799L181.859 218.874C181.324 215.066 179.669 203.818 176.895 185.13C168.657 128.33 164.185 97.2061 163.48 91.7595C162.43 83.5622 153.635 21.6769 152.887 16.3561C152.383 12.8135 151.074 3.2019 148.96 -12.4788L150.333 -12.6642C157.436 37.0052 161.601 66.1857 162.828 74.8774C164.055 83.5691 170.792 131.517 183.04 218.723C183.466 221.812 183.873 224.787 184.262 227.648L183.109 227.799ZM245.234 669.166L246.47 669.015C251.77 706.446 261.094 772.258 261.512 775.251C262.103 779.439 275.497 873.901 277.399 887.447C279.301 900.992 295.805 1018.41 297.075 1027.44C297.922 1033.46 301.318 1057.63 307.264 1099.95L306.255 1100.09C306.255 1100.09 297.645 1037.72 296.609 1030.34C295.917 1025.42 294.368 1014.59 291.961 997.857C283.374 938.462 278.724 906.231 278.01 901.164C276.939 893.564 272.442 860.788 271.907 857.76C271.371 854.733 262.48 790.692 261.32 782.391C260.551 776.926 251.502 713.441 245.234 669.166ZM-81.8228 858.783C-100.772 883.822 -117.722 906.217 -122.782 912.89L-255.89 1088.47L-324.833 1179.4L-325.753 1178.48C-325.753 1178.48 -266.325 1100.43 -259.309 1091.17C-254.627 1084.99 -244.351 1071.39 -228.483 1050.35C-172.186 975.599 -141.635 935.047 -136.829 928.694C-129.6 919.165 -98.3824 878.178 -95.5607 874.265C-94.5995 872.892 -86.8072 862.594 -76.6669 849.247L-82.9832 857.939L-81.8228 858.783ZM339.325 300.168L365.195 265.991L418.944 195.099L420.091 195.71L340.479 301.005L339.325 300.168ZM455.599 146.738L511.676 72.7628C515.301 67.9844 525.938 53.7958 543.587 30.1969C597.408 -41.3138 626.929 -80.4607 632.151 -87.2438C640.019 -97.4184 698.747 -175.122 703.841 -181.802C707.214 -186.251 716.381 -198.256 731.344 -217.818L732.552 -216.603C685.409 -154.168 657.718 -117.502 649.48 -106.604L512.72 73.8132C483.697 111.839 465.021 136.339 456.691 147.315L455.599 146.738ZM585.528 742.05L584.505 743.306C560.826 725.339 533.9 704.86 528.16 700.527C524.158 697.493 495.302 675.681 460.913 649.675L461.888 648.474L520.485 692.824C523.1 694.802 553.453 717.78 585.528 742.05ZM719.92 843.844L836.852 932.519L927.792 1001.46L926.872 1002.37C926.872 1002.37 848.846 942.927 839.598 935.931C833.424 931.258 819.817 920.984 798.776 905.112L718.986 845.011L719.92 843.844ZM37.6157 329.003L14.4378 311.461L-151.507 185.665L-150.732 184.553C-126.789 202.811 -110.937 214.885 -103.174 220.775C-91.4826 229.604 -5.54065 294.62 38.3984 327.856L37.6157 329.003ZM-254.469 108.12C-305.04 70.0441 -333.152 48.8206 -338.804 44.4496C-348.979 36.5818 -426.682 -22.1454 -433.362 -27.2396C-437.811 -30.6174 -449.816 -39.7851 -469.379 -54.7427L-468.163 -55.951C-405.729 -8.80811 -369.065 18.8826 -358.172 27.1212L-253.384 106.575L-254.469 108.12ZM-188.251 717.739L-189.185 716.236L-148.72 691.122C-113.239 669.29 -90.835 655.479 -81.5071 649.689C-73.6255 644.794 -28.2654 616.549 10.4902 592.403L11.218 593.57L-148.102 692.433C-152.391 695.097 -165.023 703.047 -185.999 716.284L-188.279 717.712L-188.251 717.739ZM-327.133 804.244C-348.78 817.694 -372.486 832.454 -375.878 834.555C-379.864 837.031 -390.696 843.693 -408.372 854.541L-409.113 852.982C-371.953 829.791 -344.988 812.97 -328.218 802.521L-327.133 804.244ZM575.141 243.095C573.012 244.427 571.522 245.368 570.966 245.745C567.595 247.99 495.446 292.602 486.123 298.403C479.402 302.571 394.73 355.345 345.484 385.959L344.722 384.586L477.617 301.911L574.372 241.715L575.141 243.095ZM626.151 211.473L625.355 210.031L761.449 125.586L843.072 74.9186L843.629 76.0994C843.629 76.0994 773.36 119.482 765.046 124.638C759.504 128.076 747.326 135.673 728.515 147.432C674.154 181.457 640.033 202.804 626.151 211.473ZM372.204 710.393L371.161 711.018C361.103 694.98 348.051 674.164 336.147 655.188L337.211 654.549C348.759 672.963 362.4 694.733 372.204 710.393ZM410.912 772.182C425.494 795.463 441.587 821.161 445.438 827.319L520.354 947.224L559.158 1009.32L558.293 1009.86C558.293 1009.86 525.057 956.383 521.109 950.06C518.473 945.835 512.653 936.574 503.651 922.275C471.644 871.503 454.286 843.949 451.576 839.615C447.512 833.107 430.066 804.999 428.35 802.445C427.512 801.196 418.91 787.431 409.813 772.855L410.912 772.182ZM133.547 331.152L86.999 256.668L88.0082 256.085C104.275 282.347 114.589 298.971 118.951 305.955C120.75 308.839 126.688 318.313 134.419 330.671L133.547 331.152ZM34.1967 173.047C24.7498 158.034 19.2574 149.269 17.7195 146.752C13.4286 139.694 -19.7797 86.7341 -22.6288 82.1823C-24.5237 79.1431 -29.627 70.9045 -37.9388 57.4666L-36.7922 56.78C-10.0856 99.2223 5.59509 124.169 10.2499 131.62L35.6522 172.23L34.1967 173.047ZM146.694 764.163C151.322 744.254 156.244 723.115 160.906 703.109L162.437 703.432L148.246 764.486L146.694 764.163ZM133.65 820.172L125.899 856.655L126.668 856.82C117.53 896.022 94.1597 996.347 90.1846 1013.35C85.3307 1034.1 43.2316 1214.04 39.998 1227.88C37.8331 1237.11 29.1666 1274.15 13.9985 1339L12.7902 1338.54C12.7902 1338.54 35.3295 1243.06 37.9727 1231.74C39.7394 1224.2 43.5909 1207.59 49.5273 1181.92C70.5493 1090.74 81.9689 1041.27 83.7859 1033.5C86.5321 1021.83 98.3751 971.714 99.3431 966.997C100.311 962.28 123.372 864.221 126.366 851.499C127.011 848.822 129.709 837.102 133.67 820.172H133.65ZM269.222 239.463L270.595 239.704C264.863 264.364 260.695 282.269 260.338 283.807C260.057 284.995 257.4 296.46 253.473 313.391L252.045 313.143C258.292 286.457 265.165 256.963 269.243 239.463H269.222ZM293.416 135.966L328.121 -12.2042C329.494 -18.0399 333.444 -35.3248 339.971 -64.0591C360.045 -151.269 371.099 -199.041 373.131 -207.376C376.186 -219.871 398.259 -314.765 400.167 -322.915C401.435 -328.352 404.925 -343.049 410.637 -367.005L412.237 -366.387C394.57 -290.171 384.182 -245.41 381.074 -232.105C377.967 -218.8 360.773 -145.323 329.494 -11.6756C318.052 36.4742 310.852 66.8974 307.895 79.5939C306.474 85.6768 301.229 108.195 294.721 136.186L293.416 135.966ZM-121.711 386.432L-265.199 352.86C-271.035 351.487 -288.32 347.537 -317.054 341.01C-404.264 320.936 -452.036 309.889 -460.371 307.871C-472.866 304.816 -567.761 282.743 -575.91 280.835C-581.347 279.553 -596.044 276.056 -620 270.344L-619.382 268.738C-543.166 286.405 -498.406 296.792 -485.1 299.9L-264.671 351.473C-216.521 362.916 -186.098 370.115 -173.401 373.072L-121.443 385.169L-121.711 386.432ZM619.265 559.442L619.828 557.987C665.318 568.587 745.335 587.234 760.35 590.742L974.882 640.935L1086 666.935L1085.53 668.143C1085.53 668.143 990.062 645.604 978.741 642.961C971.193 641.198 954.586 637.347 928.918 631.406C837.74 610.384 788.268 598.967 780.501 597.154C768.829 594.408 718.711 582.558 713.995 581.59C710.39 580.855 652.13 567.173 619.265 559.456V559.442Z" fill="url(#paint0_linear_420_3043)"/>
<defs>
<linearGradient id="paint0_linear_420_3043" x1="233" y1="-367.005" x2="233" y2="1339" gradientUnits="userSpaceOnUse">
<stop stop-color="white"/>
<stop offset="1" stop-color="#999999"/>
</linearGradient>
</defs>
</svg>
