<svg width="28" height="28" viewBox="0 0 28 28" fill="none" xmlns="http://www.w3.org/2000/svg">
<path d="M17.0858 2.83273C16.4734 2.65211 15.8439 2.53483 15.2075 2.48273C13.7996 2.31617 12.3727 2.42715 11.0075 2.80939L10.9258 2.83273C8.47794 3.5049 6.31865 4.96264 4.78007 6.98175C3.24149 9.00085 2.40883 11.4695 2.41016 14.008C2.41148 16.5465 3.24672 19.0143 4.78741 21.0318C6.3281 23.0493 8.48891 24.5048 10.9375 25.1744C11.8336 25.4281 12.7595 25.5615 13.6908 25.5711C13.7947 25.5898 13.9003 25.5976 14.0058 25.5944C15.043 25.5957 16.0755 25.4543 17.0742 25.1744C19.5207 24.5025 21.679 23.0461 23.2177 21.0288C24.7564 19.0116 25.5905 16.5451 25.5918 14.008C25.5931 11.4709 24.7617 9.00352 23.225 6.98469C21.6884 4.96586 19.5316 3.50722 17.0858 2.83273ZM16.7708 3.95273C18.2815 4.37064 19.6785 5.12364 20.8581 6.15577C22.0377 7.1879 22.9694 8.4726 23.5842 9.91439H18.6142C18.0202 7.62423 16.9287 5.49313 15.4175 3.67273C15.8749 3.73249 16.3273 3.82608 16.7708 3.95273ZM14.0058 3.84773C15.599 5.57471 16.7622 7.65325 17.4008 9.91439H10.5875C11.2228 7.64753 12.3954 5.56729 14.0058 3.85006V3.84773ZM17.6925 11.0811C18.0656 13.0115 18.0656 14.9956 17.6925 16.9261H10.3192C10.1218 15.9665 10.0241 14.9891 10.0275 14.0094C10.0249 13.0259 10.1227 12.0447 10.3192 11.0811H17.6925ZM11.1592 3.97606L11.2408 3.95273C11.6856 3.83371 12.1377 3.74407 12.5942 3.68439C11.0735 5.49667 9.97728 7.62608 9.38584 9.91673H4.43334C5.04584 8.49107 5.96669 7.21888 7.12965 6.19168C8.29262 5.16448 9.66879 4.40779 11.1592 3.97606ZM3.57584 14.0094C3.57587 13.0174 3.7213 12.0308 4.00751 11.0811H9.12918C8.95187 12.0471 8.86206 13.0272 8.86084 14.0094C8.86276 14.9877 8.95256 15.9638 9.12918 16.9261H4.00751C3.72078 15.9804 3.57532 14.9976 3.57584 14.0094ZM11.2408 24.0544C9.72875 23.6396 8.33022 22.8877 7.15021 21.8552C5.9702 20.8227 5.03935 19.5364 4.42751 18.0927H9.37418C9.97123 20.3887 11.0755 22.5216 12.6058 24.3344C12.1445 24.2752 11.6882 24.1816 11.2408 24.0544ZM10.5875 18.0927H17.4008C16.7705 20.3608 15.6064 22.445 14.0058 24.1711C12.4062 22.4405 11.2354 20.3585 10.5875 18.0927ZM16.7708 24.0544C16.3208 24.1703 15.8652 24.2638 15.4058 24.3344C16.9212 22.5151 18.0167 20.3839 18.6142 18.0927H23.5842C22.9709 19.5354 22.0396 20.821 20.8598 21.8533C19.68 22.8856 18.2822 23.638 16.7708 24.0544ZM18.8708 16.9261C19.2328 14.9945 19.2328 13.0126 18.8708 11.0811H23.9925C24.2838 12.0297 24.4294 13.0171 24.4242 14.0094C24.4268 14.9969 24.2853 15.9794 24.0042 16.9261H18.8708Z" fill="white"/>
</svg>
