<svg width="87" height="72" viewBox="0 0 87 72" fill="none" xmlns="http://www.w3.org/2000/svg">
<g clip-path="url(#clip0_742_2774)">
<mask id="mask0_742_2774" style="mask-type:luminance" maskUnits="userSpaceOnUse" x="21" y="0" width="44" height="41">
<path d="M64.173 0H21.9121V40.6957H64.173V0Z" fill="white"/>
</mask>
<g mask="url(#mask0_742_2774)">
<path fill-rule="evenodd" clip-rule="evenodd" d="M43.0429 1.04346C44.0118 1.04346 44.9623 1.11332 45.8944 1.25305L47.2953 5.49725C48.5225 5.84748 49.6891 6.34664 50.7701 6.97541L54.7965 5.03394C56.2222 6.12877 57.4908 7.41941 58.5608 8.86448L56.5476 12.855C57.1599 13.9507 57.6324 15.1182 57.9651 16.3573L62.1845 17.8272C62.4193 19.6113 62.4036 21.4196 62.1376 23.1993L57.8934 24.6003C57.5447 25.8146 57.0483 26.9816 56.4153 28.0751L58.3567 32.1014C57.2615 33.5285 55.9722 34.7956 54.5262 35.8657L50.5357 33.8526C49.4319 34.4692 48.2553 34.9454 47.0333 35.2701L45.5635 39.4894C43.7793 39.7243 41.9711 39.7085 40.1913 39.4426L38.7904 35.1984C37.576 34.8496 36.409 34.3532 35.3156 33.7202L31.2893 35.6617C29.8621 34.5665 28.5951 33.2771 27.5249 31.8311L29.5381 27.8407C28.924 26.7356 28.448 25.5594 28.1206 24.3383L23.9012 22.8656C23.6666 21.0824 23.6824 19.2751 23.9481 17.4963L28.1923 16.0953C28.5425 14.8681 29.0417 13.7016 29.6705 12.6206L27.729 8.59421C28.8242 7.16708 30.1135 5.90004 31.5595 4.82987L35.55 6.84303C36.6538 6.22641 37.8304 5.75022 39.0524 5.42554L40.525 1.20617C41.3505 1.09769 42.1898 1.04346 43.0429 1.04346Z" stroke="white" stroke-width="1.5" stroke-linecap="round" stroke-linejoin="round"/>
<path d="M43.0433 30.522C48.6624 30.522 53.2175 25.9668 53.2175 20.3478C53.2175 14.7287 48.6624 10.1736 43.0433 10.1736C37.4243 10.1736 32.8691 14.7287 32.8691 20.3478C32.8691 25.9668 37.4243 30.522 43.0433 30.522Z" stroke="white" stroke-width="1.5" stroke-linecap="round" stroke-linejoin="round"/>
<path d="M35.9338 23.6522V17.8218H39.7294V18.5261H36.7007V20.3731H39.5729V21.0774H36.7007V22.9479H39.7294V23.6522H35.9338ZM40.6799 23.6522V17.8218H42.7381C43.1242 17.8218 43.4633 17.8948 43.7555 18.0409C44.0477 18.187 44.2746 18.3957 44.4364 18.667C44.6033 18.9383 44.6868 19.2566 44.6868 19.6218C44.6868 20.034 44.5825 20.3835 44.3738 20.6705C44.1651 20.9574 43.8833 21.1635 43.5286 21.2887L44.8825 23.6522H43.9903L42.566 21.1244L43.0746 21.4218H41.4468V23.6522H40.6799ZM41.4468 20.7174H42.7616C42.9912 20.7174 43.192 20.6731 43.3642 20.5844C43.5364 20.4957 43.6694 20.3679 43.7633 20.2009C43.8625 20.034 43.912 19.8409 43.912 19.6218C43.912 19.3974 43.8625 19.2044 43.7633 19.0427C43.6694 18.8757 43.5364 18.7479 43.3642 18.6592C43.192 18.5705 42.9912 18.5261 42.7616 18.5261H41.4468V20.7174ZM45.7546 23.6522V17.8218H47.8129C48.1989 17.8218 48.5381 17.8948 48.8302 18.0409C49.1224 18.187 49.3494 18.3957 49.5111 18.667C49.6781 18.9383 49.7616 19.2566 49.7616 19.6218C49.7616 19.987 49.6781 20.3053 49.5111 20.5766C49.3494 20.8427 49.1224 21.0514 48.8302 21.2027C48.5433 21.3487 48.2042 21.4218 47.8129 21.4218H46.5216V23.6522H45.7546ZM46.5216 20.7174H47.8363C48.0711 20.7174 48.2746 20.6731 48.4468 20.5844C48.6189 20.4957 48.752 20.3679 48.8459 20.2009C48.9398 20.034 48.9868 19.8409 48.9868 19.6218C48.9868 19.3974 48.9398 19.2044 48.8459 19.0427C48.752 18.8757 48.6189 18.7479 48.4468 18.6592C48.2746 18.5705 48.0711 18.5261 47.8363 18.5261H46.5216V20.7174Z" fill="#ED313A"/>
</g>
<path d="M20.3479 58.6631H3.13043C1.81575 58.6631 0.75 59.7288 0.75 61.0435V68.8697C0.75 70.1843 1.81575 71.2501 3.13043 71.2501H20.3479C21.6625 71.2501 22.7283 70.1843 22.7283 68.8697V61.0435C22.7283 59.7288 21.6625 58.6631 20.3479 58.6631Z" fill="#383636" stroke="white" stroke-width="1.5"/>
<path d="M13 63H10V66H13V63Z" fill="#ED313A"/>
<path d="M51.6526 58.6631H34.4351C33.1204 58.6631 32.0547 59.7288 32.0547 61.0435V68.8697C32.0547 70.1843 33.1204 71.2501 34.4351 71.2501H51.6526C52.9672 71.2501 54.033 70.1843 54.033 68.8697V61.0435C54.033 59.7288 52.9672 58.6631 51.6526 58.6631Z" fill="#383636" stroke="white" stroke-width="1.5"/>
<path d="M42 63H39V66H42V63Z" fill="#ED313A"/>
<path d="M46.5645 63H43.5645V66H46.5645V63Z" fill="#ED313A"/>
<path d="M82.9572 58.6631H65.7398C64.4251 58.6631 63.3594 59.7288 63.3594 61.0435V68.8697C63.3594 70.1843 64.4251 71.2501 65.7398 71.2501H82.9572C84.2719 71.2501 85.3377 70.1843 85.3377 68.8697V61.0435C85.3377 59.7288 84.2719 58.6631 82.9572 58.6631Z" fill="#383636" stroke="white" stroke-width="1.5"/>
<path d="M71 63H68V66H71V63Z" fill="#ED313A"/>
<path d="M75.5645 63H72.5645V66H75.5645V63Z" fill="#ED313A"/>
<path d="M80.1309 63H77.1309V66H80.1309V63Z" fill="#ED313A"/>
<path d="M12.5216 46.5H75.1303M12 58.3V46M43.0434 58.2131V47M75.5 58.8V46" stroke="white" stroke-width="1.5"/>
</g>
<defs>
<clipPath id="clip0_742_2774">
<rect width="87" height="72" fill="white"/>
</clipPath>
</defs>
</svg>
