<svg width="87" height="72" viewBox="0 0 87 72" fill="none" xmlns="http://www.w3.org/2000/svg">
<g clip-path="url(#clip0_713_1308)">
<path fill-rule="evenodd" clip-rule="evenodd" d="M43.0429 1.04346C44.0118 1.04346 44.9623 1.11332 45.8944 1.25305L47.2953 5.49725C48.5225 5.84748 49.6891 6.34664 50.7701 6.97541L54.7965 5.03394C56.2222 6.12877 57.4908 7.41941 58.5608 8.86448L56.5476 12.855C57.1599 13.9507 57.6324 15.1182 57.9651 16.3573L62.1845 17.8272C62.4193 19.6113 62.4036 21.4196 62.1376 23.1993L57.8934 24.6003C57.5447 25.8146 57.0483 26.9816 56.4153 28.0751L58.3567 32.1014C57.2615 33.5285 55.9722 34.7956 54.5262 35.8657L50.5357 33.8526C49.4319 34.4692 48.2553 34.9454 47.0333 35.2701L45.5635 39.4894C43.7793 39.7243 41.9711 39.7085 40.1913 39.4426L38.7904 35.1984C37.576 34.8496 36.409 34.3532 35.3156 33.7202L31.2893 35.6617C29.8621 34.5665 28.5951 33.2771 27.5249 31.8311L29.5381 27.8407C28.924 26.7356 28.448 25.5594 28.1206 24.3383L23.9012 22.8656C23.6666 21.0824 23.6824 19.2751 23.9481 17.4963L28.1923 16.0953C28.5425 14.8681 29.0417 13.7016 29.6705 12.6206L27.729 8.59421C28.8242 7.16708 30.1135 5.90004 31.5595 4.82987L35.55 6.84303C36.6538 6.22641 37.8304 5.75022 39.0524 5.42554L40.525 1.20617C41.3505 1.09769 42.1898 1.04346 43.0429 1.04346Z" stroke="white" stroke-width="1.5" stroke-linecap="round" stroke-linejoin="round"/>
<path d="M43.0433 30.522C48.6624 30.522 53.2175 25.9668 53.2175 20.3478C53.2175 14.7287 48.6624 10.1736 43.0433 10.1736C37.4243 10.1736 32.8691 14.7287 32.8691 20.3478C32.8691 25.9668 37.4243 30.522 43.0433 30.522Z" stroke="white" stroke-width="1.5" stroke-linecap="round" stroke-linejoin="round"/>
<path d="M35.9339 23.6522V17.8218H39.7295V18.5261H36.7008V20.3731H39.573V21.0774H36.7008V22.9479H39.7295V23.6522H35.9339ZM40.68 23.6522V17.8218H42.7382C43.1243 17.8218 43.4634 17.8948 43.7556 18.0409C44.0478 18.187 44.2747 18.3957 44.4365 18.667C44.6034 18.9383 44.6869 19.2566 44.6869 19.6218C44.6869 20.034 44.5826 20.3835 44.3739 20.6705C44.1652 20.9574 43.8834 21.1635 43.5287 21.2887L44.8826 23.6522H43.9904L42.5661 21.1244L43.0747 21.4218H41.4469V23.6522H40.68ZM41.4469 20.7174H42.7617C42.9913 20.7174 43.1921 20.6731 43.3643 20.5844C43.5365 20.4957 43.6695 20.3679 43.7634 20.2009C43.8626 20.034 43.9121 19.8409 43.9121 19.6218C43.9121 19.3974 43.8626 19.2044 43.7634 19.0427C43.6695 18.8757 43.5365 18.7479 43.3643 18.6592C43.1921 18.5705 42.9913 18.5261 42.7617 18.5261H41.4469V20.7174ZM45.7547 23.6522V17.8218H47.813C48.199 17.8218 48.5382 17.8948 48.8303 18.0409C49.1225 18.187 49.3495 18.3957 49.5112 18.667C49.6782 18.9383 49.7617 19.2566 49.7617 19.6218C49.7617 19.987 49.6782 20.3053 49.5112 20.5766C49.3495 20.8427 49.1225 21.0514 48.8303 21.2027C48.5434 21.3487 48.2043 21.4218 47.813 21.4218H46.5217V23.6522H45.7547ZM46.5217 20.7174H47.8364C48.0712 20.7174 48.2747 20.6731 48.4469 20.5844C48.619 20.4957 48.7521 20.3679 48.846 20.2009C48.9399 20.034 48.9869 19.8409 48.9869 19.6218C48.9869 19.3974 48.9399 19.2044 48.846 19.0427C48.7521 18.8757 48.619 18.7479 48.4469 18.6592C48.2747 18.5705 48.0712 18.5261 47.8364 18.5261H46.5217V20.7174Z" fill="#ED313A"/>
</g>
<rect x="0.75" y="58.6631" width="21.9783" height="12.587" rx="2.38043" fill="#383636" stroke="white" stroke-width="1.5"/>
<rect x="10" y="63" width="3" height="3" fill="#ED313A"/>
<rect x="32.0547" y="58.6631" width="21.9783" height="12.587" rx="2.38043" fill="#383636" stroke="white" stroke-width="1.5"/>
<rect x="39" y="63" width="3" height="3" fill="#ED313A"/>
<rect x="43.5645" y="63" width="3" height="3" fill="#ED313A"/>
<rect x="63.3594" y="58.6631" width="21.9783" height="12.587" rx="2.38043" fill="#383636" stroke="white" stroke-width="1.5"/>
<rect x="68" y="63" width="3" height="3" fill="#ED313A"/>
<rect x="72.5645" y="63" width="3" height="3" fill="#ED313A"/>
<rect x="77.1309" y="63" width="3" height="3" fill="#ED313A"/>
<path d="M12.5216 46.5L75.1303 46.5M12 58.3V46M43.0434 58.2131V47M75.5 58.8V46" stroke="white" stroke-width="1.5"/>
<defs>
<clipPath id="clip0_713_1308">
<rect width="42.2609" height="40.6957" fill="white" transform="translate(21.9121)"/>
</clipPath>
</defs>
</svg>
