<svg width="134" height="82" viewBox="0 0 134 82" fill="none" xmlns="http://www.w3.org/2000/svg">
<rect x="21.1172" y="33" width="26" height="26" rx="13" fill="#ED313A"/>
<path d="M28.1172 41.3333V43.3333C28.1172 43.7 28.4172 44 28.7839 44C29.1505 44 29.4505 43.7 29.4505 43.3333V42C29.4505 41.6333 29.7505 41.3333 30.1172 41.3333H31.4505C31.8172 41.3333 32.1172 41.0333 32.1172 40.6667C32.1172 40.3 31.8172 40 31.4505 40H29.4505C28.7172 40 28.1172 40.6 28.1172 41.3333ZM28.7839 48C28.4172 48 28.1172 48.3 28.1172 48.6667V50.6667C28.1172 51.4 28.7172 52 29.4505 52H31.4505C31.8172 52 32.1172 51.7 32.1172 51.3333C32.1172 50.9667 31.8172 50.6667 31.4505 50.6667H30.1172C29.7505 50.6667 29.4505 50.3667 29.4505 50V48.6667C29.4505 48.3 29.1505 48 28.7839 48ZM38.7839 50C38.7839 50.3667 38.4839 50.6667 38.1172 50.6667H36.7839C36.4172 50.6667 36.1172 50.9667 36.1172 51.3333C36.1172 51.7 36.4172 52 36.7839 52H38.7839C39.5172 52 40.1172 51.4 40.1172 50.6667V48.6667C40.1172 48.3 39.8172 48 39.4505 48C39.0839 48 38.7839 48.3 38.7839 48.6667V50ZM38.7839 40H36.7839C36.4172 40 36.1172 40.3 36.1172 40.6667C36.1172 41.0333 36.4172 41.3333 36.7839 41.3333H38.1172C38.4839 41.3333 38.7839 41.6333 38.7839 42V43.3333C38.7839 43.7 39.0839 44 39.4505 44C39.8172 44 40.1172 43.7 40.1172 43.3333V41.3333C40.1172 40.6 39.5172 40 38.7839 40Z" fill="white"/>
<path d="M35.0588 11.7268C28.746 11.5332 22.5084 13.2227 17.0874 16.5944C11.6664 19.9661 7.29013 24.8782 4.47873 30.7468C1.66733 36.6153 0.53909 43.1936 1.22814 49.6994C1.9172 56.2052 4.39456 62.365 8.36572 67.4466C12.3369 72.5281 17.6348 76.3176 23.6297 78.3646C29.6246 80.4116 36.0643 80.63 42.1833 78.9938C48.3022 77.3576 53.8431 73.9356 58.1472 69.1347C62.4512 64.3338 65.3375 58.3559 66.4628 51.9116L64.4624 51.5407C63.4065 57.5878 60.6981 63.1972 56.6594 67.7022C52.6206 72.2072 47.4213 75.4182 41.6795 76.9535C35.9377 78.4889 29.895 78.284 24.2696 76.3632C18.6442 74.4423 13.6729 70.8864 9.94651 66.1181C6.22014 61.3498 3.89548 55.5697 3.2489 49.4649C2.60232 43.3601 3.66101 37.1874 6.29912 31.6805C8.93722 26.1737 13.0438 21.5644 18.1306 18.4005C23.2174 15.2366 29.0706 13.6513 34.9942 13.833L35.0588 11.7268Z" fill="#666666"/>
<path d="M53.2792 16V5.57H60.0692V6.83H54.6512V10.134H59.7892V11.394H54.6512V14.74H60.0692V16H53.2792ZM60.7614 16L63.4074 12.22L60.7754 8.454H62.3434L64.5974 11.73H63.7994L66.0254 8.454H67.6074L64.9754 12.22L67.5934 16H66.0254L63.7994 12.724H64.5834L62.3574 16H60.7614ZM68.7658 18.8V8.454H70.0398V10.078L69.8718 9.756C70.1518 9.308 70.5345 8.95333 71.0198 8.692C71.5051 8.42133 72.0605 8.286 72.6858 8.286C73.3951 8.286 74.0298 8.45867 74.5898 8.804C75.1591 9.14933 75.6071 9.62067 75.9338 10.218C76.2605 10.806 76.4238 11.478 76.4238 12.234C76.4238 12.9713 76.2605 13.6387 75.9338 14.236C75.6071 14.8333 75.1591 15.3047 74.5898 15.65C74.0298 15.9953 73.3905 16.168 72.6718 16.168C72.0651 16.168 71.5098 16.0327 71.0058 15.762C70.5111 15.4913 70.1285 15.1087 69.8578 14.614L70.0678 14.39V18.8H68.7658ZM72.5738 14.908C73.0498 14.908 73.4745 14.7913 73.8478 14.558C74.2211 14.3247 74.5105 14.0073 74.7158 13.606C74.9305 13.1953 75.0378 12.738 75.0378 12.234C75.0378 11.7113 74.9305 11.254 74.7158 10.862C74.5105 10.4607 74.2211 10.1433 73.8478 9.91C73.4745 9.66733 73.0498 9.546 72.5738 9.546C72.0978 9.546 71.6685 9.66267 71.2858 9.896C70.9125 10.1293 70.6138 10.4513 70.3898 10.862C70.1751 11.2633 70.0678 11.7207 70.0678 12.234C70.0678 12.738 70.1751 13.1953 70.3898 13.606C70.6138 14.0073 70.9125 14.3247 71.2858 14.558C71.6685 14.7913 72.0978 14.908 72.5738 14.908ZM78.131 16V5.402H79.433V16H78.131ZM85.0373 16.168C84.3093 16.168 83.6513 16 83.0633 15.664C82.4753 15.3187 82.0086 14.8473 81.6633 14.25C81.318 13.6527 81.1453 12.976 81.1453 12.22C81.1453 11.464 81.3133 10.792 81.6493 10.204C81.9946 9.616 82.4613 9.14933 83.0493 8.804C83.6373 8.45867 84.3 8.286 85.0373 8.286C85.7653 8.286 86.4233 8.45867 87.0113 8.804C87.5993 9.14 88.0613 9.602 88.3973 10.19C88.7426 10.778 88.9153 11.4547 88.9153 12.22C88.9153 12.9853 88.738 13.6667 88.3833 14.264C88.0286 14.852 87.5573 15.3187 86.9693 15.664C86.3906 16 85.7466 16.168 85.0373 16.168ZM85.0373 14.908C85.504 14.908 85.924 14.7913 86.2973 14.558C86.68 14.3247 86.9786 14.0027 87.1933 13.592C87.4173 13.1813 87.5293 12.724 87.5293 12.22C87.5293 11.7067 87.4173 11.254 87.1933 10.862C86.9786 10.4607 86.68 10.1433 86.2973 9.91C85.924 9.66733 85.504 9.546 85.0373 9.546C84.5613 9.546 84.132 9.66733 83.7493 9.91C83.376 10.1433 83.0773 10.4607 82.8533 10.862C82.6293 11.254 82.5173 11.7067 82.5173 12.22C82.5173 12.724 82.6293 13.1813 82.8533 13.592C83.0773 14.0027 83.376 14.3247 83.7493 14.558C84.132 14.7913 84.5613 14.908 85.0373 14.908ZM90.6135 16V8.454H91.8875V9.84L91.7475 9.644C91.9248 9.21467 92.1955 8.89733 92.5595 8.692C92.9235 8.47733 93.3668 8.37 93.8895 8.37H94.3515V9.602H93.6935C93.1615 9.602 92.7321 9.77 92.4055 10.106C92.0788 10.4327 91.9155 10.8993 91.9155 11.506V16H90.6135ZM98.98 16.168C98.252 16.168 97.6033 15.9953 97.034 15.65C96.4647 15.3047 96.0167 14.8333 95.69 14.236C95.3633 13.6293 95.2 12.9527 95.2 12.206C95.2 11.45 95.3587 10.778 95.676 10.19C96.0027 9.602 96.4413 9.14 96.992 8.804C97.552 8.45867 98.1773 8.286 98.868 8.286C99.428 8.286 99.9227 8.38867 100.352 8.594C100.791 8.79 101.159 9.06067 101.458 9.406C101.766 9.742 101.999 10.1293 102.158 10.568C102.326 10.9973 102.41 11.4453 102.41 11.912C102.41 12.0147 102.401 12.1313 102.382 12.262C102.373 12.3833 102.359 12.5 102.34 12.612H96.152V11.492H101.584L100.968 11.996C101.052 11.5107 101.005 11.0767 100.828 10.694C100.651 10.3113 100.389 10.008 100.044 9.784C99.6987 9.56 99.3067 9.448 98.868 9.448C98.4293 9.448 98.028 9.56 97.664 9.784C97.3 10.008 97.0153 10.33 96.81 10.75C96.614 11.1607 96.5347 11.6507 96.572 12.22C96.5347 12.7707 96.6187 13.256 96.824 13.676C97.0387 14.0867 97.3373 14.4087 97.72 14.642C98.112 14.866 98.5367 14.978 98.994 14.978C99.498 14.978 99.9227 14.8613 100.268 14.628C100.613 14.3947 100.893 14.096 101.108 13.732L102.2 14.292C102.051 14.6373 101.817 14.9547 101.5 15.244C101.192 15.524 100.823 15.748 100.394 15.916C99.974 16.084 99.5027 16.168 98.98 16.168ZM58.0812 33.168C57.3439 33.168 56.6625 33.0373 56.0372 32.776C55.4212 32.5053 54.8799 32.1273 54.4132 31.642C53.9559 31.1567 53.6012 30.5873 53.3492 29.934C53.0972 29.2807 52.9712 28.5667 52.9712 27.792C52.9712 27.008 53.0972 26.2893 53.3492 25.636C53.6012 24.9827 53.9559 24.4133 54.4132 23.928C54.8705 23.4427 55.4119 23.0693 56.0372 22.808C56.6625 22.5373 57.3439 22.402 58.0812 22.402C58.7999 22.402 59.4439 22.528 60.0132 22.78C60.5919 23.032 61.0772 23.3587 61.4692 23.76C61.8705 24.1613 62.1552 24.5907 62.3232 25.048L61.0632 25.622C60.8205 25.0433 60.4425 24.5767 59.9292 24.222C59.4159 23.858 58.7999 23.676 58.0812 23.676C57.3532 23.676 56.7045 23.8487 56.1352 24.194C55.5752 24.5393 55.1365 25.02 54.8192 25.636C54.5019 26.252 54.3432 26.9707 54.3432 27.792C54.3432 28.604 54.5019 29.318 54.8192 29.934C55.1365 30.55 55.5752 31.0307 56.1352 31.376C56.7045 31.7213 57.3532 31.894 58.0812 31.894C58.7999 31.894 59.4159 31.7167 59.9292 31.362C60.4425 30.998 60.8205 30.5267 61.0632 29.948L62.3232 30.522C62.1552 30.9793 61.8705 31.4087 61.4692 31.81C61.0772 32.2113 60.5919 32.538 60.0132 32.79C59.4439 33.042 58.7999 33.168 58.0812 33.168ZM67.4826 33.168C66.7546 33.168 66.0966 33 65.5086 32.664C64.9206 32.3187 64.454 31.8473 64.1086 31.25C63.7633 30.6527 63.5906 29.976 63.5906 29.22C63.5906 28.464 63.7586 27.792 64.0946 27.204C64.44 26.616 64.9066 26.1493 65.4946 25.804C66.0826 25.4587 66.7453 25.286 67.4826 25.286C68.2106 25.286 68.8686 25.4587 69.4566 25.804C70.0446 26.14 70.5066 26.602 70.8426 27.19C71.188 27.778 71.3606 28.4547 71.3606 29.22C71.3606 29.9853 71.1833 30.6667 70.8286 31.264C70.474 31.852 70.0026 32.3187 69.4146 32.664C68.836 33 68.192 33.168 67.4826 33.168ZM67.4826 31.908C67.9493 31.908 68.3693 31.7913 68.7426 31.558C69.1253 31.3247 69.424 31.0027 69.6386 30.592C69.8626 30.1813 69.9746 29.724 69.9746 29.22C69.9746 28.7067 69.8626 28.254 69.6386 27.862C69.424 27.4607 69.1253 27.1433 68.7426 26.91C68.3693 26.6673 67.9493 26.546 67.4826 26.546C67.0066 26.546 66.5773 26.6673 66.1946 26.91C65.8213 27.1433 65.5226 27.4607 65.2986 27.862C65.0746 28.254 64.9626 28.7067 64.9626 29.22C64.9626 29.724 65.0746 30.1813 65.2986 30.592C65.5226 31.0027 65.8213 31.3247 66.1946 31.558C66.5773 31.7913 67.0066 31.908 67.4826 31.908ZM73.0588 33V22.402H74.3608V33H73.0588ZM76.381 33V22.402H77.683V33H76.381ZM83.1753 33.168C82.4473 33.168 81.7986 32.9953 81.2293 32.65C80.66 32.3047 80.212 31.8333 79.8853 31.236C79.5586 30.6293 79.3953 29.9527 79.3953 29.206C79.3953 28.45 79.554 27.778 79.8713 27.19C80.198 26.602 80.6366 26.14 81.1873 25.804C81.7473 25.4587 82.3726 25.286 83.0633 25.286C83.6233 25.286 84.118 25.3887 84.5473 25.594C84.986 25.79 85.3546 26.0607 85.6533 26.406C85.9613 26.742 86.1946 27.1293 86.3533 27.568C86.5213 27.9973 86.6053 28.4453 86.6053 28.912C86.6053 29.0147 86.596 29.1313 86.5773 29.262C86.568 29.3833 86.554 29.5 86.5353 29.612H80.3473V28.492H85.7793L85.1633 28.996C85.2473 28.5107 85.2006 28.0767 85.0233 27.694C84.846 27.3113 84.5846 27.008 84.2393 26.784C83.894 26.56 83.502 26.448 83.0633 26.448C82.6246 26.448 82.2233 26.56 81.8593 26.784C81.4953 27.008 81.2106 27.33 81.0053 27.75C80.8093 28.1607 80.73 28.6507 80.7673 29.22C80.73 29.7707 80.814 30.256 81.0193 30.676C81.234 31.0867 81.5326 31.4087 81.9153 31.642C82.3073 31.866 82.732 31.978 83.1893 31.978C83.6933 31.978 84.118 31.8613 84.4633 31.628C84.8086 31.3947 85.0886 31.096 85.3033 30.732L86.3953 31.292C86.246 31.6373 86.0126 31.9547 85.6953 32.244C85.3873 32.524 85.0186 32.748 84.5893 32.916C84.1693 33.084 83.698 33.168 83.1753 33.168ZM91.8029 33.168C91.0656 33.168 90.4076 32.9953 89.8289 32.65C89.2596 32.3047 88.8116 31.8333 88.4849 31.236C88.1583 30.6387 87.9949 29.9667 87.9949 29.22C87.9949 28.464 88.1583 27.792 88.4849 27.204C88.8116 26.616 89.2596 26.1493 89.8289 25.804C90.4076 25.4587 91.0656 25.286 91.8029 25.286C92.2976 25.286 92.7596 25.3747 93.1889 25.552C93.6183 25.7293 93.9963 25.9673 94.3229 26.266C94.6496 26.5647 94.8876 26.9147 95.0369 27.316L93.8749 27.876C93.6976 27.484 93.4269 27.1667 93.0629 26.924C92.6989 26.672 92.2789 26.546 91.8029 26.546C91.3456 26.546 90.9303 26.6627 90.5569 26.896C90.1929 27.1293 89.9036 27.4467 89.6889 27.848C89.4743 28.2493 89.3669 28.7113 89.3669 29.234C89.3669 29.738 89.4743 30.1953 89.6889 30.606C89.9036 31.0073 90.1929 31.3247 90.5569 31.558C90.9303 31.7913 91.3456 31.908 91.8029 31.908C92.2789 31.908 92.6989 31.7867 93.0629 31.544C93.4269 31.292 93.6976 30.9607 93.8749 30.55L95.0369 31.138C94.8876 31.53 94.6496 31.88 94.3229 32.188C93.9963 32.4867 93.6183 32.7247 93.1889 32.902C92.7596 33.0793 92.2976 33.168 91.8029 33.168ZM99.8045 33.084C99.0671 33.084 98.4978 32.874 98.0965 32.454C97.7045 32.034 97.5085 31.4413 97.5085 30.676V26.7H96.1365V25.454H96.4165C96.7525 25.454 97.0185 25.3513 97.2145 25.146C97.4105 24.9407 97.5085 24.67 97.5085 24.334V23.718H98.8105V25.454H100.504V26.7H98.8105V30.634C98.8105 30.886 98.8478 31.1053 98.9225 31.292C99.0065 31.4787 99.1418 31.628 99.3285 31.74C99.5151 31.8427 99.7625 31.894 100.07 31.894C100.136 31.894 100.215 31.8893 100.308 31.88C100.411 31.8707 100.504 31.8613 100.588 31.852V33C100.467 33.028 100.332 33.0467 100.182 33.056C100.033 33.0747 99.9071 33.084 99.8045 33.084ZM102.289 33V25.454H103.591V33H102.289ZM102.289 24.25V22.57H103.591V24.25H102.289ZM109.196 33.168C108.468 33.168 107.81 33 107.222 32.664C106.634 32.3187 106.167 31.8473 105.822 31.25C105.476 30.6527 105.304 29.976 105.304 29.22C105.304 28.464 105.472 27.792 105.808 27.204C106.153 26.616 106.62 26.1493 107.208 25.804C107.796 25.4587 108.458 25.286 109.196 25.286C109.924 25.286 110.582 25.4587 111.17 25.804C111.758 26.14 112.22 26.602 112.556 27.19C112.901 27.778 113.074 28.4547 113.074 29.22C113.074 29.9853 112.896 30.6667 112.542 31.264C112.187 31.852 111.716 32.3187 111.128 32.664C110.549 33 109.905 33.168 109.196 33.168ZM109.196 31.908C109.662 31.908 110.082 31.7913 110.456 31.558C110.838 31.3247 111.137 31.0027 111.352 30.592C111.576 30.1813 111.688 29.724 111.688 29.22C111.688 28.7067 111.576 28.254 111.352 27.862C111.137 27.4607 110.838 27.1433 110.456 26.91C110.082 26.6673 109.662 26.546 109.196 26.546C108.72 26.546 108.29 26.6673 107.908 26.91C107.534 27.1433 107.236 27.4607 107.012 27.862C106.788 28.254 106.676 28.7067 106.676 29.22C106.676 29.724 106.788 30.1813 107.012 30.592C107.236 31.0027 107.534 31.3247 107.908 31.558C108.29 31.7913 108.72 31.908 109.196 31.908ZM114.772 33V25.454H116.046V26.924L115.836 26.798C116.022 26.322 116.321 25.9533 116.732 25.692C117.152 25.4213 117.642 25.286 118.202 25.286C118.743 25.286 119.224 25.4073 119.644 25.65C120.073 25.8927 120.409 26.2287 120.652 26.658C120.904 27.0873 121.03 27.5727 121.03 28.114V33H119.714V28.534C119.714 28.114 119.639 27.7593 119.49 27.47C119.34 27.1807 119.126 26.9567 118.846 26.798C118.575 26.63 118.262 26.546 117.908 26.546C117.553 26.546 117.236 26.63 116.956 26.798C116.685 26.9567 116.47 27.1853 116.312 27.484C116.153 27.7733 116.074 28.1233 116.074 28.534V33H114.772Z" fill="#666666"/>
</svg>
