<svg width="44" height="44" viewBox="0 0 44 44" fill="none" xmlns="http://www.w3.org/2000/svg">
<rect x="0.493827" y="0.740898" width="42.4696" height="42.3824" rx="21.1912" stroke="#383636" stroke-width="0.987654"/>
<path d="M21.7288 10.1235C15.1833 10.1235 9.87695 15.4298 9.87695 21.9754C9.87695 27.5334 13.7037 32.1974 18.8659 33.4783V25.5973H16.422V21.9754H18.8659V20.4147C18.8659 16.3808 20.6915 14.5111 24.6519 14.5111C25.4029 14.5111 26.6985 14.6585 27.2285 14.8055V18.0885C26.9488 18.0591 26.4629 18.0444 25.8594 18.0444C23.9162 18.0444 23.1652 18.7806 23.1652 20.6944V21.9754H27.0365L26.3714 25.5973H23.1652V33.7405C29.0338 33.0317 33.5811 28.035 33.5811 21.9754C33.5807 15.4298 28.2743 10.1235 21.7288 10.1235Z" fill="#383636"/>
</svg>
