<svg width="1280" height="5908" viewBox="0 0 1280 5908" fill="none" xmlns="http://www.w3.org/2000/svg">
<path d="M982.401 332.599C1085.33 433.491 1331.59 475.208 1270.27 369.172C1233.05 304.801 1091.93 298.68 982.401 332.599Z" fill="#ED313A"/>
<path d="M787.5 0.00021185C888 -1.50031 1089.86 18.7675 966.656 174.503C812.647 369.171 1358.28 521.367 1270.27 369.172C1182.27 216.976 513.432 390.408 1054.66 648.787C1487.64 855.489 636.638 909.525 157.013 910.705C-10.8507 918.375 -268.491 995.314 43.8562 1241.71C434.29 1549.7 1140.71 1680.69 1097.68 1868.32C1070.71 1985.96 436.139 2324.8 111 2580.5C-82.4202 2732.61 -155.03 2872 43.8562 2872C1217 2872 148.144 3343.89 609 3504C749.545 3552.83 1343.95 3470.17 1313 3780C1255.34 4357.28 -163.8 4083.2 -7.00015 4400C189 4796 1313 4944 1343 5080" stroke="#ED313A" stroke-width="1.5" stroke-linecap="square"/>
<g filter="url(#filter0_f_686_1948)">
<circle cx="1205" cy="1916" r="246" fill="#ED313A"/>
<circle cx="1205" cy="1916" r="245.5" stroke="#ED313A"/>
</g>
<g filter="url(#filter1_f_686_1948)">
<circle cx="76" cy="3865" r="246" fill="#ED313A"/>
<circle cx="76" cy="3865" r="245.5" stroke="#ED313A"/>
</g>
<g filter="url(#filter2_f_686_1948)">
<circle cx="1218" cy="4915" r="193" fill="#ED313A"/>
<circle cx="1218" cy="4915" r="192.5" stroke="#ED313A"/>
</g>
<path d="M1054.56 810.998C1054.95 810.715 1055.48 811.096 1055.33 811.555L1051.58 823.267C1051.43 823.721 1051.51 824.216 1051.79 824.602L1058.99 834.573C1059.27 834.964 1058.89 835.488 1058.43 835.341L1046.72 831.591C1046.27 831.446 1045.77 831.525 1045.39 831.804L1035.42 839.003C1035.03 839.285 1034.5 838.905 1034.65 838.445L1038.4 826.733C1038.54 826.28 1038.46 825.784 1038.19 825.398L1030.99 815.428C1030.7 815.037 1031.08 814.512 1031.54 814.66L1043.26 818.409C1043.71 818.554 1044.2 818.475 1044.59 818.196L1054.56 810.998Z" fill="#ED313A" stroke="#ED313A"/>
<path d="M742.513 1422.2C742.343 1421.75 742.848 1421.34 743.252 1421.61L750.91 1426.58C751.309 1426.84 751.808 1426.89 752.254 1426.72L760.799 1423.51C761.251 1423.34 761.657 1423.85 761.394 1424.25L756.424 1431.91C756.165 1432.31 756.111 1432.81 756.278 1433.25L759.49 1441.8C759.66 1442.25 759.155 1442.66 758.75 1442.39L751.093 1437.42C750.693 1437.16 750.194 1437.11 749.748 1437.28L741.203 1440.49C740.751 1440.66 740.346 1440.15 740.608 1439.75L745.578 1432.09C745.838 1431.69 745.892 1431.19 745.724 1430.75L742.513 1422.2Z" fill="#ED313A" stroke="#ED313A"/>
<path d="M193.734 3010.38C194.12 3010.09 194.651 3010.47 194.512 3010.93L192.8 3016.64C192.664 3017.09 192.752 3017.59 193.037 3017.97L196.616 3022.73C196.905 3023.12 196.535 3023.65 196.073 3023.51L190.363 3021.8C189.907 3021.66 189.413 3021.75 189.032 3022.04L184.265 3025.62C183.879 3025.91 183.348 3025.54 183.487 3025.07L185.199 3019.36C185.336 3018.91 185.248 3018.41 184.962 3018.03L181.384 3013.27C181.094 3012.88 181.464 3012.35 181.927 3012.49L187.636 3014.2C188.092 3014.34 188.586 3014.25 188.967 3013.96L193.734 3010.38Z" fill="#ED313A" stroke="#ED313A"/>
<path d="M329.807 1203.48C330.114 1203.11 330.718 1203.35 330.692 1203.83L330.371 1209.78C330.346 1210.26 330.548 1210.72 330.915 1211.02L335.515 1214.81C335.887 1215.12 335.652 1215.72 335.17 1215.69L329.218 1215.37C328.743 1215.35 328.283 1215.55 327.98 1215.92L324.189 1220.52C323.882 1220.89 323.279 1220.65 323.305 1220.17L323.625 1214.22C323.651 1213.74 323.449 1213.28 323.082 1212.98L318.482 1209.19C318.11 1208.88 318.345 1208.28 318.827 1208.31L324.778 1208.63C325.254 1208.65 325.713 1208.45 326.016 1208.08L329.807 1203.48Z" fill="#ED313A" stroke="#ED313A"/>
<path d="M429.122 1902.39C429.085 1901.9 429.683 1901.66 429.998 1902.02L433.892 1906.53C434.203 1906.89 434.667 1907.09 435.142 1907.05L441.085 1906.59C441.566 1906.56 441.815 1907.16 441.449 1907.47L436.936 1911.37C436.576 1911.68 436.385 1912.14 436.421 1912.62L436.876 1918.56C436.912 1919.04 436.314 1919.29 435.999 1918.92L432.105 1914.41C431.794 1914.05 431.33 1913.86 430.855 1913.89L424.912 1914.35C424.431 1914.39 424.182 1913.79 424.548 1913.47L429.061 1909.58C429.421 1909.27 429.613 1908.8 429.576 1908.33L429.122 1902.39Z" fill="#ED313A" stroke="#ED313A"/>
<path d="M42.9284 2142.75C43.184 2142.32 43.8445 2142.49 43.8586 2142.99L44.298 2158.61C44.3114 2159.08 44.5475 2159.52 44.9358 2159.79L56.8065 2168.11C57.1853 2168.38 57.0313 2168.97 56.5713 2169.02L42.1543 2170.53C41.6827 2170.58 41.2625 2170.85 41.0206 2171.25L33.0486 2184.69C32.7929 2185.12 32.1324 2184.95 32.1184 2184.45L31.6789 2168.83C31.6656 2168.36 31.4294 2167.92 31.0411 2167.65L19.1705 2159.33C18.7917 2159.06 18.9456 2158.47 19.4057 2158.42L33.8226 2156.91C34.2943 2156.86 34.7144 2156.6 34.9563 2156.19L42.9284 2142.75Z" fill="#ED313A" stroke="#ED313A"/>
<path d="M1109.68 2302.4C1109.7 2301.91 1110.33 2301.74 1110.59 2302.14L1119.61 2315.67C1119.87 2316.07 1120.31 2316.32 1120.78 2316.34L1137.02 2317.12C1137.51 2317.14 1137.68 2317.77 1137.28 2318.03L1123.75 2327.05C1123.35 2327.31 1123.1 2327.75 1123.08 2328.22L1122.3 2344.46C1122.28 2344.94 1121.65 2345.12 1121.39 2344.72L1112.37 2331.19C1112.11 2330.79 1111.67 2330.54 1111.2 2330.52L1094.96 2329.74C1094.47 2329.72 1094.3 2329.09 1094.7 2328.83L1108.23 2319.81C1108.63 2319.55 1108.88 2319.11 1108.9 2318.64L1109.68 2302.4Z" fill="#ED313A" stroke="#ED313A"/>
<path d="M599.525 3259.05C599.676 3258.59 600.324 3258.59 600.475 3259.05L601.347 3261.7C601.496 3262.15 601.851 3262.5 602.304 3262.65L604.955 3263.53C605.413 3263.68 605.413 3264.32 604.955 3264.47L602.304 3265.35C601.851 3265.5 601.496 3265.85 601.347 3266.3L600.475 3268.96C600.324 3269.41 599.676 3269.41 599.525 3268.96L598.653 3266.3C598.504 3265.85 598.149 3265.5 597.696 3265.35L595.045 3264.47C594.587 3264.32 594.587 3263.68 595.045 3263.53L597.696 3262.65C598.149 3262.5 598.504 3262.15 598.653 3261.7L599.525 3259.05Z" fill="#ED313A" stroke="#ED313A"/>
<path d="M707.323 2643.09C707.6 2642.7 708.22 2642.88 708.232 2643.37L708.3 2646.16C708.312 2646.63 708.549 2647.08 708.939 2647.35L711.225 2648.95C711.62 2649.23 711.433 2649.85 710.951 2649.86L708.16 2649.93C707.684 2649.94 707.241 2650.18 706.968 2650.57L705.366 2652.85C705.089 2653.25 704.469 2653.06 704.457 2652.58L704.389 2649.79C704.378 2649.31 704.14 2648.87 703.75 2648.59L701.464 2646.99C701.069 2646.72 701.256 2646.1 701.739 2646.08L704.529 2646.02C705.005 2646 705.448 2645.77 705.722 2645.38L707.323 2643.09Z" fill="#ED313A" stroke="#ED313A"/>
<path d="M884.525 2004.05C884.676 2003.59 885.324 2003.59 885.475 2004.05L888.327 2012.72C888.476 2013.17 888.831 2013.52 889.283 2013.67L897.955 2016.53C898.413 2016.68 898.413 2017.32 897.955 2017.47L889.283 2020.33C888.831 2020.48 888.476 2020.83 888.327 2021.28L885.475 2029.96C885.324 2030.41 884.676 2030.41 884.525 2029.96L881.673 2021.28C881.524 2020.83 881.169 2020.48 880.717 2020.33L872.045 2017.47C871.587 2017.32 871.587 2016.68 872.045 2016.53L880.717 2013.67C881.169 2013.52 881.524 2013.17 881.673 2012.72L884.525 2004.05Z" fill="#ED313A" stroke="#ED313A"/>
<path d="M1236.79 1830.22C1236.71 1829.75 1237.28 1829.44 1237.63 1829.77L1251.12 1842.63C1251.46 1842.96 1251.94 1843.11 1252.41 1843.03L1270.77 1839.81C1271.24 1839.72 1271.55 1840.29 1271.21 1840.64L1258.36 1854.13C1258.03 1854.47 1257.88 1854.95 1257.96 1855.42L1261.18 1873.78C1261.27 1874.25 1260.7 1874.56 1260.35 1874.23L1246.86 1861.37C1246.52 1861.04 1246.03 1860.89 1245.57 1860.97L1227.21 1864.19C1226.74 1864.28 1226.43 1863.71 1226.76 1863.36L1239.62 1849.87C1239.95 1849.53 1240.1 1849.05 1240.01 1848.58L1236.79 1830.22Z" fill="#ED313A" stroke="#ED313A"/>
<path d="M34.8809 4252.76C34.9187 4252.65 35.0813 4252.65 35.1191 4252.76L36.5742 4257.19C36.6114 4257.3 36.7003 4257.39 36.8135 4257.43L41.2393 4258.88C41.3535 4258.92 41.3535 4259.08 41.2393 4259.12L36.8135 4260.57C36.7003 4260.61 36.6114 4260.7 36.5742 4260.81L35.1191 4265.24C35.0813 4265.35 34.9187 4265.35 34.8809 4265.24L33.4258 4260.81C33.3886 4260.7 33.2997 4260.61 33.1865 4260.57L28.7607 4259.12C28.6465 4259.08 28.6465 4258.92 28.7607 4258.88L33.1865 4257.43C33.2997 4257.39 33.3886 4257.3 33.4258 4257.19L34.8809 4252.76Z" fill="#ED313A" stroke="#ED313A" stroke-width="0.25"/>
<path d="M784.525 4075.04C784.676 4074.59 785.324 4074.59 785.475 4075.04L791.297 4092.75C791.446 4093.2 791.801 4093.55 792.253 4093.7L809.955 4099.53C810.413 4099.68 810.413 4100.32 809.955 4100.47L792.253 4106.3C791.801 4106.45 791.446 4106.8 791.297 4107.25L785.475 4124.96C785.324 4125.41 784.676 4125.41 784.525 4124.96L778.703 4107.25C778.554 4106.8 778.199 4106.45 777.747 4106.3L760.045 4100.47C759.587 4100.32 759.587 4099.68 760.045 4099.53L777.747 4093.7C778.199 4093.55 778.554 4093.2 778.703 4092.75L784.525 4075.04Z" fill="#ED313A" stroke="#ED313A"/>
<path d="M1197.53 3935.04C1197.68 3934.59 1198.32 3934.59 1198.47 3935.04L1199.35 3937.7C1199.5 3938.15 1199.85 3938.5 1200.3 3938.65L1202.96 3939.53C1203.41 3939.68 1203.41 3940.32 1202.96 3940.47L1200.3 3941.35C1199.85 3941.5 1199.5 3941.85 1199.35 3942.3L1198.47 3944.96C1198.32 3945.41 1197.68 3945.41 1197.53 3944.96L1196.65 3942.3C1196.5 3941.85 1196.15 3941.5 1195.7 3941.35L1193.04 3940.47C1192.59 3940.32 1192.59 3939.68 1193.04 3939.53L1195.7 3938.65C1196.15 3938.5 1196.5 3938.15 1196.65 3937.7L1197.53 3935.04Z" fill="#ED313A" stroke="#ED313A"/>
<path d="M392.525 4783.04C392.676 4782.59 393.324 4782.59 393.475 4783.04L399.297 4800.75C399.446 4801.2 399.801 4801.55 400.253 4801.7L417.955 4807.53C418.413 4807.68 418.413 4808.32 417.955 4808.47L400.253 4814.3C399.801 4814.45 399.446 4814.8 399.297 4815.25L393.475 4832.96C393.324 4833.41 392.676 4833.41 392.525 4832.96L386.703 4815.25C386.554 4814.8 386.199 4814.45 385.747 4814.3L368.045 4808.47C367.587 4808.32 367.587 4807.68 368.045 4807.53L385.747 4801.7C386.199 4801.55 386.554 4801.2 386.703 4800.75L392.525 4783.04Z" fill="#ED313A" stroke="#ED313A"/>
<path d="M8.52539 4947.04C8.67615 4946.59 9.32385 4946.59 9.47461 4947.04L11.3369 4952.71C11.4858 4953.16 11.8407 4953.51 12.293 4953.66L17.9551 4955.53C18.4135 4955.68 18.4135 4956.32 17.9551 4956.47L12.293 4958.34C11.8407 4958.49 11.4858 4958.84 11.3369 4959.29L9.47461 4964.96C9.32385 4965.41 8.67615 4965.41 8.52539 4964.96L6.66309 4959.29C6.51423 4958.84 6.1593 4958.49 5.70703 4958.34L0.0449219 4956.47C-0.413466 4956.32 -0.413465 4955.68 0.0449219 4955.53L5.70703 4953.66C6.1593 4953.51 6.51423 4953.16 6.66309 4952.71L8.52539 4947.04Z" fill="#ED313A" stroke="#ED313A"/>
<path d="M1100.53 4983.04C1100.68 4982.59 1101.32 4982.59 1101.47 4983.04L1105.32 4994.73C1105.47 4995.18 1105.82 4995.53 1106.27 4995.68L1117.96 4999.53C1118.41 4999.68 1118.41 5000.32 1117.96 5000.47L1106.27 5004.32C1105.82 5004.47 1105.47 5004.82 1105.32 5005.27L1101.47 5016.96C1101.32 5017.41 1100.68 5017.41 1100.53 5016.96L1096.68 5005.27C1096.53 5004.82 1096.18 5004.47 1095.73 5004.32L1084.04 5000.47C1083.59 5000.32 1083.59 4999.68 1084.04 4999.53L1095.73 4995.68C1096.18 4995.53 1096.53 4995.18 1096.68 4994.73L1100.53 4983.04Z" fill="#ED313A" stroke="#ED313A"/>
<path d="M1135.1 3528.31C1135.09 3527.83 1135.7 3527.61 1136 3527.99L1137.71 3530.19C1138.01 3530.56 1138.46 3530.78 1138.94 3530.77L1141.73 3530.69C1142.21 3530.67 1142.43 3531.28 1142.05 3531.58L1139.85 3533.3C1139.48 3533.59 1139.26 3534.05 1139.28 3534.52L1139.36 3537.31C1139.37 3537.8 1138.76 3538.02 1138.46 3537.64L1136.74 3535.44C1136.45 3535.06 1135.99 3534.85 1135.52 3534.86L1132.73 3534.94C1132.25 3534.95 1132.03 3534.34 1132.41 3534.05L1134.61 3532.33C1134.98 3532.03 1135.19 3531.58 1135.18 3531.1L1135.1 3528.31Z" fill="#ED313A" stroke="#ED313A"/>
<path d="M108.025 851.045C108.176 850.587 108.824 850.587 108.975 851.045L110.713 856.33C110.862 856.783 111.217 857.139 111.67 857.287L116.955 859.026C117.413 859.176 117.413 859.824 116.955 859.975L111.67 861.713C111.217 861.862 110.862 862.218 110.713 862.67L108.975 867.955C108.824 868.414 108.176 868.414 108.025 867.955L106.287 862.67C106.138 862.218 105.783 861.862 105.33 861.713L100.045 859.975C99.5865 859.824 99.5865 859.176 100.045 859.026L105.33 857.287C105.783 857.139 106.138 856.783 106.287 856.33L108.025 851.045Z" fill="#ED313A" stroke="#ED313A"/>
<defs>
<filter id="filter0_f_686_1948" x="159" y="870" width="2092" height="2092" filterUnits="userSpaceOnUse" color-interpolation-filters="sRGB">
<feFlood flood-opacity="0" result="BackgroundImageFix"/>
<feBlend mode="normal" in="SourceGraphic" in2="BackgroundImageFix" result="shape"/>
<feGaussianBlur stdDeviation="400" result="effect1_foregroundBlur_686_1948"/>
</filter>
<filter id="filter1_f_686_1948" x="-970" y="2819" width="2092" height="2092" filterUnits="userSpaceOnUse" color-interpolation-filters="sRGB">
<feFlood flood-opacity="0" result="BackgroundImageFix"/>
<feBlend mode="normal" in="SourceGraphic" in2="BackgroundImageFix" result="shape"/>
<feGaussianBlur stdDeviation="400" result="effect1_foregroundBlur_686_1948"/>
</filter>
<filter id="filter2_f_686_1948" x="225" y="3922" width="1986" height="1986" filterUnits="userSpaceOnUse" color-interpolation-filters="sRGB">
<feFlood flood-opacity="0" result="BackgroundImageFix"/>
<feBlend mode="normal" in="SourceGraphic" in2="BackgroundImageFix" result="shape"/>
<feGaussianBlur stdDeviation="400" result="effect1_foregroundBlur_686_1948"/>
</filter>
</defs>
</svg>
