<svg width="102" height="72" viewBox="0 0 102 72" fill="none" xmlns="http://www.w3.org/2000/svg">
<g clip-path="url(#clip0_713_1151)">
<rect x="36.25" y="6.25" width="34.5" height="50.5" rx="3.75" stroke="#383636" stroke-width="0.5"/>
<rect x="31.75" y="0.75" width="43.5" height="70.5" rx="3.25" stroke="white" stroke-width="1.5"/>
<path d="M69.5394 11.0868V10.5213C69.5394 10.2156 69.2796 10.0016 68.9892 10.0016H65.6725C65.3668 10.0016 65 10.2156 65 10.5213V13.8226C65 14.1283 65.3668 14.3729 65.6725 14.3729H68.9892C69.2796 14.3729 69.5394 14.1283 69.5394 13.8226V13.5934H76.402V11.0868H69.5394Z" fill="#383636"/>
<path d="M85.9243 10.0016H78.5879V14.3729H85.9243V10.0016Z" fill="#BCBEC0"/>
<path d="M78.588 8.74829V15.779H76.4023V8.74829H78.588Z" fill="#D1D3D4"/>
<path fill-rule="evenodd" clip-rule="evenodd" d="M78.5877 16.0541H76.4021C76.2492 16.0541 76.127 15.9318 76.127 15.779V8.74826C76.127 8.59542 76.2492 8.47314 76.4021 8.47314H78.5877C78.7406 8.47314 78.8628 8.59542 78.8628 8.74826V15.779C78.8628 15.9318 78.7406 16.0541 78.5877 16.0541ZM76.6772 15.5039H78.3126V9.02338H76.6772V15.5039Z" fill="white"/>
<path d="M81.0483 14.3729H80.498V12.4929H81.0483V14.3729Z" fill="white"/>
<path d="M83.0815 14.3729H82.5312V12.4929H83.0815V14.3729Z" fill="white"/>
<path fill-rule="evenodd" clip-rule="evenodd" d="M68.9892 14.6479H65.6726C65.2293 14.6479 64.7402 14.2964 64.7402 13.8226V10.5212C64.7402 10.0474 65.2293 9.72644 65.6726 9.72644H68.9892C69.4478 9.72644 69.7993 10.078 69.7993 10.5212V10.8269H76.4021C76.5549 10.8269 76.6772 10.9492 76.6772 11.0867V13.5933C76.6772 13.7462 76.5549 13.8684 76.4021 13.8684H69.7993C69.784 14.2964 69.4325 14.6479 68.9892 14.6479ZM65.6726 10.2767C65.4892 10.2767 65.2752 10.3989 65.2752 10.5212V13.8226C65.2752 13.9602 65.4892 14.0977 65.6726 14.0977H68.9892C69.1421 14.0977 69.2644 13.9754 69.2644 13.8226V13.5933C69.2644 13.4405 69.3866 13.3182 69.5395 13.3182H76.1269V11.3618H69.5395C69.3866 11.3618 69.2644 11.2396 69.2644 11.0867V10.5212C69.2644 10.3531 69.1268 10.2767 68.9892 10.2767H65.6726Z" fill="white"/>
<path d="M83.7116 71.6663V71.1977C84.0891 71.1977 84.4666 71.1586 84.8442 71.0935L84.9223 71.5492C84.5317 71.6273 84.1152 71.6533 83.7116 71.6663ZM82.5009 71.5622C82.0973 71.4841 81.7067 71.3799 81.3162 71.2497L81.4724 70.8071C81.8369 70.9373 82.2014 71.0414 82.579 71.1065L82.5009 71.5622ZM86.107 71.2367L85.9377 70.8071C86.3022 70.6769 86.6407 70.5077 86.9662 70.3254L87.2005 70.716C86.849 70.9243 86.4845 71.0935 86.107 71.2367ZM80.2227 70.729C79.8712 70.5207 79.5327 70.2864 79.2202 70.026L79.5197 69.6745C79.8061 69.9219 80.1185 70.1432 80.444 70.3254L80.2227 70.729ZM88.2159 70.026L87.9165 69.6745C88.2029 69.4272 88.4763 69.1538 88.7237 68.8674L89.0752 69.1668C88.8148 69.4792 88.5154 69.7656 88.2159 70.026ZM78.361 69.1798C78.1007 68.8674 77.8663 68.5289 77.658 68.1774L78.0616 67.9431C78.2569 68.2685 78.4782 68.581 78.7255 68.8804L78.361 69.1798ZM89.7651 68.1644L89.3616 67.9301C89.5438 67.6046 89.7131 67.2661 89.8432 66.9016L90.2729 67.0578C90.1427 67.4484 89.9604 67.8129 89.7651 68.1644ZM77.1373 67.0708C76.9941 66.6933 76.8899 66.3027 76.8248 65.8992L77.2805 65.8211C77.3456 66.1986 77.4367 66.5631 77.5669 66.9146L77.1373 67.0708ZM90.5983 65.8862L90.1427 65.8081C90.2078 65.4305 90.2338 65.053 90.2338 64.6755V64.6364H90.7025V64.6624C90.7025 65.079 90.6677 65.4869 90.5983 65.8862ZM77.1763 64.6885H76.7207V64.6755C76.7207 64.2719 76.7467 63.8683 76.8248 63.4647L77.2805 63.5559C77.2154 63.9204 77.1763 64.2979 77.1763 64.6755V64.6885ZM90.1296 63.5038C90.0646 63.1263 89.9604 62.7617 89.8302 62.4103L90.2729 62.254C90.4161 62.6316 90.5202 63.0221 90.5853 63.4257L90.1296 63.5038ZM77.5669 62.4493L77.1373 62.2931C77.2675 61.9025 77.4367 61.538 77.645 61.1865L78.0486 61.4078C77.8533 61.7463 77.6971 62.0848 77.5669 62.4493ZM89.3485 61.3818C89.1663 61.0563 88.945 60.7439 88.6976 60.4445L89.0491 60.145C89.3095 60.4575 89.5438 60.796 89.7521 61.1475L89.3485 61.3818ZM78.6865 60.4835L78.335 60.1841C78.5954 59.8717 78.8818 59.5853 79.1942 59.3249L79.4936 59.6764C79.2072 59.9237 78.9338 60.1841 78.6865 60.4835ZM87.8775 59.6504C87.5911 59.403 87.2786 59.1817 86.9532 58.9994L87.1745 58.5959C87.526 58.8042 87.8644 59.0255 88.1769 59.2858L87.8775 59.6504ZM80.4179 59.0255L80.1836 58.6219C80.5351 58.4266 80.9126 58.2444 81.2902 58.1142L81.4464 58.5438C81.0949 58.674 80.7434 58.8432 80.4179 59.0255ZM85.9117 58.5308C85.5602 58.4006 85.1827 58.3095 84.8181 58.2444L84.8963 57.7887C85.2868 57.8538 85.6904 57.958 86.0679 58.0881L85.9117 58.5308ZM82.5529 58.2574L82.4618 57.8017C82.8654 57.7236 83.269 57.6846 83.6855 57.6846V58.1532C83.295 58.1532 82.9175 58.1923 82.5529 58.2574Z" fill="white"/>
<path fill-rule="evenodd" clip-rule="evenodd" d="M84.728 69.948H82.8924C82.5192 69.948 82.3326 69.8308 82.3326 69.5965V68.4769C82.1894 68.4378 82.0852 68.3727 81.9681 68.3207L81.2521 69.0887C81.0698 69.271 80.7704 69.271 80.6011 69.1018L79.3123 67.8129C79.2212 67.7348 79.1821 67.6177 79.1821 67.5005C79.1821 67.3833 79.2212 67.2792 79.3123 67.1881L80.0934 66.433C80.0587 66.3549 80.024 66.2768 79.9893 66.1987C79.9719 66.1639 79.9589 66.1292 79.9502 66.0945H78.8176C78.5182 66.0945 78.3359 65.717 78.3359 65.5087V63.6861C78.3359 63.4778 78.5182 63.1003 78.8176 63.1003H79.9242C79.9763 62.9701 80.0283 62.8529 80.0934 62.7488L79.3123 62.0328C79.1301 61.8505 79.1301 61.5641 79.2993 61.3949L80.5881 60.1061C80.7574 59.9238 81.0438 59.9238 81.213 60.1061L81.9681 60.8741C82.0852 60.8221 82.1894 60.757 82.3326 60.7049V59.5983C82.3326 59.3249 82.6711 59.1036 82.8924 59.1036H84.728C84.9883 59.1036 85.1836 59.364 85.1836 59.5983V60.7309C85.227 60.7483 85.2704 60.7657 85.3138 60.783C85.4049 60.8091 85.4961 60.8481 85.5872 60.8872L86.3683 60.093C86.5505 59.9238 86.8369 59.9238 87.0062 60.093L88.308 61.3819C88.4773 61.5511 88.4773 61.8245 88.308 61.9937L87.5269 62.7488C87.592 62.8529 87.6441 62.9701 87.6962 63.1003H88.8027C88.9199 63.1003 89.1803 63.1524 89.1803 63.6861V65.5087C89.1803 66.0294 88.9199 66.0945 88.8027 66.0945H87.6701C87.6528 66.1292 87.6354 66.1639 87.618 66.1987C87.592 66.2768 87.5616 66.3549 87.5269 66.433L88.295 67.162C88.3861 67.2532 88.4382 67.3573 88.4382 67.4745C88.4382 67.6047 88.3861 67.7088 88.308 67.7999L87.0192 69.0887C86.85 69.258 86.5505 69.271 86.3813 69.0887L85.5872 68.3076C85.4961 68.3467 85.4049 68.3857 85.3138 68.4118C85.2704 68.4291 85.227 68.4465 85.1836 68.4639V69.5965C85.1836 69.7527 85.1055 69.948 84.728 69.948ZM82.7882 69.4793C82.8143 69.4793 82.849 69.4793 82.8924 69.4793H84.728V68.3076C84.728 68.2295 84.767 68.1514 84.8451 68.1124C84.9102 68.0733 85.0274 68.0342 85.1446 67.9822C85.2747 67.9301 85.4179 67.878 85.5351 67.826C85.6262 67.7739 85.7304 67.7869 85.8085 67.865L86.6937 68.7633L87.9695 67.4875L87.0843 66.6543C87.0062 66.5892 86.9801 66.4721 87.0322 66.3809C87.0973 66.2638 87.1494 66.1336 87.2015 66.0164C87.2405 65.9123 87.2796 65.8211 87.3186 65.743C87.3577 65.6779 87.4358 65.6258 87.5269 65.6258H88.6986C88.7073 65.5998 88.7116 65.5608 88.7116 65.5087V63.6861C88.7116 63.634 88.7073 63.595 88.6986 63.569H87.5269C87.4228 63.569 87.3316 63.4908 87.3056 63.3867C87.2535 63.2044 87.1884 63.0873 87.0973 62.9441C87.08 62.9007 87.0583 62.8573 87.0322 62.8139C86.9801 62.7228 87.0062 62.6056 87.0843 62.5405L87.9565 61.6813L86.6937 60.4315L85.8085 61.3298C85.7304 61.3949 85.6262 61.4209 85.5351 61.3688C85.431 61.3168 85.2747 61.2647 85.1446 61.2126C85.0274 61.1605 84.9102 61.1215 84.8451 61.0824C84.767 61.0434 84.728 60.9653 84.728 60.8741V59.5983C84.7149 59.5983 84.7149 59.5853 84.7019 59.5723H82.8924C82.8663 59.5723 82.8143 59.6114 82.7882 59.6374V60.8741C82.7882 60.9783 82.7231 61.0694 82.619 61.0954C82.4237 61.1605 82.2935 61.2256 82.1373 61.3168L82.0332 61.3688C81.942 61.4209 81.8379 61.4079 81.7598 61.3298L80.9006 60.4445L79.6378 61.7073L80.536 62.5405C80.6142 62.6056 80.6272 62.7228 80.5751 62.8139C80.5577 62.8573 80.536 62.8963 80.51 62.931C80.4319 63.0873 80.3668 63.2044 80.3147 63.3867C80.2887 63.4908 80.1976 63.569 80.0934 63.569H78.8567C78.8306 63.595 78.8046 63.6601 78.8046 63.6861V65.5087C78.8046 65.5347 78.8306 65.5998 78.8567 65.6258H80.0934C80.1715 65.6258 80.2496 65.6779 80.2887 65.743C80.3278 65.8211 80.3668 65.9123 80.4189 66.0164C80.471 66.1336 80.523 66.2638 80.5881 66.3809C80.6272 66.4721 80.6142 66.5762 80.536 66.6543L79.6508 67.5005L80.9266 68.7633L81.7598 67.865C81.8249 67.7999 81.942 67.7739 82.0332 67.826L82.1243 67.878C82.2935 67.9692 82.4237 68.0343 82.619 68.0863C82.7231 68.1124 82.7882 68.2035 82.7882 68.3076V69.4793Z" fill="white"/>
<path fill-rule="evenodd" clip-rule="evenodd" d="M83.7633 66.5241C82.7219 66.5241 81.8887 65.6909 81.8887 64.6625C81.8887 63.621 82.7219 62.7878 83.7633 62.7878C84.7918 62.7878 85.638 63.621 85.638 64.6625C85.638 65.6909 84.7918 66.5241 83.7633 66.5241ZM83.7633 63.2435C82.9822 63.2435 82.3443 63.8814 82.3443 64.6625C82.3443 65.4306 82.9822 66.0685 83.7633 66.0685C84.5444 66.0685 85.1693 65.4306 85.1693 64.6625C85.1693 63.8814 84.5444 63.2435 83.7633 63.2435Z" fill="white"/>
<path d="M21.203 18.2391L21.1864 17.64C21.669 17.64 22.135 17.5734 22.6009 17.4902L22.7174 18.056C22.2182 18.1725 21.7189 18.2224 21.203 18.2391ZM19.6886 18.1559C19.1727 18.0893 18.6734 17.9728 18.1908 17.823L18.3739 17.2572C18.8232 17.3903 19.2892 17.5068 19.7552 17.5734L19.6886 18.1559ZM24.1986 17.6233L23.9822 17.0741C24.4316 16.9077 24.8642 16.6914 25.2636 16.4418L25.5798 16.9576C25.1305 17.2073 24.6812 17.4403 24.1986 17.6233ZM16.7929 17.2239C16.3436 16.9909 15.9109 16.708 15.5115 16.3918L15.8776 15.9258C16.2437 16.2254 16.6598 16.475 17.0758 16.6914L16.7929 17.2239ZM26.7947 16.059L26.4119 15.6097C26.7614 15.2935 27.0943 14.9606 27.4105 14.5945L27.8598 14.9606C27.5436 15.36 27.1775 15.7261 26.7947 16.059ZM14.3798 15.3767C14.0303 15.0105 13.7141 14.5945 13.4312 14.1784L13.9305 13.8456C14.1967 14.245 14.4797 14.6278 14.8125 14.9773L14.3798 15.3767ZM28.7252 13.6958L28.2093 13.4129C28.4423 12.9969 28.642 12.5642 28.8084 12.1148L29.3576 12.3145C29.1912 12.7805 28.9748 13.2465 28.7252 13.6958ZM12.7156 12.8304C12.5159 12.3478 12.3495 11.8652 12.233 11.366L12.8155 11.2328C12.9319 11.6988 13.0817 12.1481 13.2648 12.5975L12.7156 12.8304ZM29.7403 10.8334L29.1579 10.7335C29.2411 10.2676 29.2744 9.78496 29.2744 9.30234C29.2744 8.95841 29.2577 8.62003 29.2244 8.28719L29.8069 8.20398C29.8513 8.5701 29.8735 8.93622 29.8735 9.30234C29.8735 9.81824 29.8235 10.3341 29.7403 10.8334ZM12.0166 9.85153C12.0055 9.67401 12 9.49095 12 9.30234C12 8.9806 12.0166 8.65886 12.0499 8.33711L12.6324 8.40367C12.5991 8.70323 12.5825 9.00279 12.5825 9.30234C12.5825 9.47986 12.588 9.65182 12.5991 9.81824L12.0166 9.85153ZM12.9153 6.9891L12.3495 6.83933C12.4993 6.34007 12.6823 5.85745 12.8987 5.40812L13.4312 5.65775C13.2149 6.09044 13.0484 6.53977 12.9153 6.9891ZM28.9249 6.88926C28.7917 6.42328 28.6087 5.99059 28.409 5.5579L28.9249 5.29163C29.1579 5.74097 29.3409 6.22358 29.4907 6.7062L28.9249 6.88926ZM14.1635 4.44289L13.6808 4.11005C13.9804 3.694 14.3132 3.29459 14.6794 2.94511L15.0954 3.36116C14.7459 3.694 14.4464 4.06012 14.1635 4.44289ZM27.6601 4.35968C27.3772 3.97691 27.061 3.61079 26.7115 3.27795L27.1109 2.8619C27.4937 3.21138 27.8265 3.59415 28.1261 4.0102L27.6601 4.35968ZM16.1938 2.44585L15.8609 1.96324C16.277 1.68033 16.7263 1.41405 17.1923 1.1977L17.4419 1.74688C17.0092 1.94659 16.5932 2.17958 16.1938 2.44585ZM25.6131 2.39593C25.2137 2.12965 24.7977 1.89666 24.365 1.69696L24.598 1.14778C25.0639 1.36412 25.5133 1.61375 25.946 1.89667L25.6131 2.39593ZM18.7733 1.26427L18.6235 0.698443C19.1061 0.565307 19.622 0.465453 20.1213 0.415527L20.1712 1.01464C19.7052 1.04793 19.2393 1.14778 18.7733 1.26427ZM23.017 1.23099C22.551 1.11449 22.085 1.03128 21.6024 0.997996L21.6523 0.415527C22.1516 0.448811 22.6675 0.532021 23.1501 0.665157L23.017 1.23099Z" fill="white"/>
<path fill-rule="evenodd" clip-rule="evenodd" d="M22.2357 16.3918H19.8891C19.4121 16.3918 19.1735 16.242 19.1735 15.9424V14.5279C18.9905 14.4613 18.8573 14.3947 18.7242 14.3115L17.7923 15.2934C17.5593 15.5264 17.1765 15.5264 16.9768 15.31L15.3126 13.6625C15.2127 13.5626 15.1462 13.4129 15.1462 13.2631C15.1462 13.1299 15.2127 12.9802 15.3126 12.8803L16.3111 11.8984C16.2667 11.7986 16.2279 11.6987 16.1946 11.5989C16.1724 11.5545 16.1503 11.5101 16.1281 11.4657H14.6802C14.2974 11.4657 14.0645 10.9831 14.0645 10.7169V8.38698C14.0645 8.12071 14.2974 7.63809 14.6802 7.63809H16.0948C16.1613 7.47167 16.2279 7.33853 16.3111 7.18876L15.3126 6.27345C15.0796 6.04046 15.0796 5.69099 15.296 5.458L16.9435 3.81044C17.1599 3.59409 17.526 3.59409 17.7423 3.81044L18.7076 4.80896C18.8573 4.72575 18.9905 4.64254 19.1735 4.59261V3.1614C19.1735 2.82856 19.6062 2.54565 19.8891 2.54565H22.2357C22.5685 2.54565 22.8181 2.87849 22.8181 3.1614V4.60925C22.8736 4.63144 22.9291 4.65363 22.9845 4.67582C23.101 4.70911 23.2175 4.75903 23.334 4.80896L24.3492 3.7938C24.5655 3.57746 24.9483 3.57746 25.1646 3.7938L26.8122 5.44135C27.0452 5.6577 27.0452 6.00718 26.8122 6.22352L25.8137 7.18876C25.8969 7.32189 25.9635 7.47167 26.03 7.63809H27.4446C27.5944 7.63809 27.9272 7.70466 27.9272 8.38698V10.7169C27.9272 11.3825 27.5944 11.4657 27.4446 11.4657H25.9967C25.9857 11.5101 25.969 11.5545 25.9468 11.5989C25.9024 11.6987 25.8581 11.7986 25.8137 11.8984L26.8122 12.8304C26.9121 12.9469 26.9786 13.08 26.9786 13.2464C26.9786 13.3962 26.9287 13.546 26.8122 13.6458L25.1646 15.31C24.9483 15.5264 24.5655 15.5264 24.3492 15.31L23.334 14.2949C23.2175 14.3448 23.101 14.3947 22.9845 14.4447C22.9291 14.4558 22.8736 14.4724 22.8181 14.4946V15.9424C22.8181 16.1421 22.7183 16.3918 22.2357 16.3918ZM19.756 15.7927C19.7893 15.8037 19.8337 15.8093 19.8891 15.8093H22.2357V14.3115C22.2357 14.195 22.2856 14.0952 22.3854 14.0452C22.4853 13.9953 22.6184 13.9454 22.7682 13.8788C22.9346 13.8289 23.1343 13.7457 23.2675 13.6791C23.384 13.6126 23.5171 13.6292 23.6169 13.729L24.7486 14.8773L26.3795 13.2464L25.2479 12.1813C25.148 12.0981 25.1314 11.9484 25.1813 11.8319C25.2645 11.6821 25.3311 11.5157 25.3976 11.3659C25.4476 11.2328 25.4975 11.1163 25.5474 11.0164C25.614 10.9332 25.7138 10.8666 25.8137 10.8666H27.3281C27.3281 10.8334 27.3281 10.7834 27.3281 10.7169V8.38698C27.3281 8.32041 27.3281 8.27048 27.3281 8.2372H25.8137C25.6806 8.2372 25.5641 8.13735 25.5308 8.02085C25.4642 7.77123 25.381 7.62145 25.2645 7.43839C25.2423 7.38291 25.2146 7.32744 25.1813 7.27197C25.1314 7.15547 25.148 7.02234 25.2479 6.92249L26.3795 5.84076L24.7486 4.22649L23.6169 5.37479C23.5171 5.47464 23.384 5.49128 23.2675 5.42471C23.1343 5.35814 22.9513 5.29157 22.7848 5.22501C22.6184 5.15844 22.4853 5.10851 22.3854 5.05859C22.2856 5.00866 22.2357 4.90881 22.2357 4.80896V3.1614C22.2357 3.1614 22.219 3.14477 22.2024 3.12812H19.8891C19.8559 3.12812 19.7893 3.17805 19.756 3.21133V4.80896C19.756 4.92545 19.6728 5.04195 19.5397 5.09187C19.29 5.15844 19.1403 5.24165 18.9239 5.35814L18.7908 5.42471C18.6743 5.49128 18.5411 5.47464 18.4413 5.37479L17.3429 4.24313L15.7286 5.8574L16.8769 6.92249C16.9768 7.0057 16.9934 7.15547 16.9435 7.27197C16.9102 7.32744 16.8825 7.37737 16.8603 7.42175C16.7438 7.62145 16.6606 7.77123 16.594 8.02085C16.5608 8.13735 16.4443 8.2372 16.3111 8.2372H14.7301C14.6968 8.27048 14.6636 8.3537 14.6636 8.38698V10.7169C14.6636 10.7501 14.6968 10.8334 14.7301 10.8666H16.3111C16.411 10.8666 16.5108 10.9332 16.5774 11.0164C16.6273 11.1163 16.6772 11.2328 16.7272 11.3659C16.7937 11.5157 16.8603 11.6821 16.9435 11.8319C17.0101 11.9484 16.9768 12.0981 16.8769 12.1813L15.7619 13.2797L17.3762 14.8773L18.4413 13.7457C18.5245 13.6458 18.6743 13.6126 18.7908 13.6791L18.9073 13.7457C19.1236 13.8622 19.29 13.9454 19.5397 14.012C19.6728 14.0619 19.756 14.1784 19.756 14.3115V15.7927Z" fill="white"/>
<path d="M21.0029 7.70422C22.0759 7.70422 22.9335 8.56196 22.9336 9.63489C22.9336 10.6921 22.0751 11.5656 21.0029 11.5656C19.9309 11.5654 19.0723 10.6921 19.0723 9.63489C19.0724 8.56203 19.9301 7.70433 21.0029 7.70422Z" stroke="white" stroke-width="0.332839"/>
<path d="M27.5586 51.1861C27.5586 51.4231 27.361 51.6009 27.1437 51.6009H21.0985C20.8614 51.6009 20.6836 51.4231 20.6836 51.1861V45.1408C20.6836 44.9037 20.8614 44.726 21.0985 44.726H27.1437C27.361 44.726 27.5586 44.9037 27.5586 45.1408V51.1861Z" fill="#383636"/>
<path fill-rule="evenodd" clip-rule="evenodd" d="M27.1438 51.9367H21.0986C20.6837 51.9367 20.3281 51.6008 20.3281 51.186V45.1407C20.3281 44.7259 20.6837 44.39 21.0986 44.39H27.1438C27.5587 44.39 27.8946 44.7259 27.8946 45.1407V51.186C27.8946 51.6008 27.5587 51.9367 27.1438 51.9367ZM21.0986 45.0815C21.0591 45.0815 21.0393 45.1012 21.0393 45.1407V51.186C21.0393 51.2255 21.0591 51.2452 21.0986 51.2452H27.1438C27.1834 51.2452 27.2031 51.2255 27.2031 51.186V45.1407C27.2031 45.1012 27.1834 45.0815 27.1438 45.0815H21.0986Z" fill="white"/>
<path d="M37.041 51.1861C37.041 51.4231 36.8632 51.6009 36.6261 51.6009H30.5809C30.3636 51.6009 30.166 51.4231 30.166 51.1861V45.1408C30.166 44.9037 30.3636 44.726 30.5809 44.726H36.6261C36.8632 44.726 37.041 44.9037 37.041 45.1408V51.1861Z" fill="#383636"/>
<path fill-rule="evenodd" clip-rule="evenodd" d="M36.626 51.9368H30.5808C30.1659 51.9368 29.8301 51.601 29.8301 51.1861V45.1409C29.8301 44.726 30.1659 44.3901 30.5808 44.3901H36.626C37.0409 44.3901 37.3965 44.726 37.3965 45.1409V51.1861C37.3965 51.601 37.0409 51.9368 36.626 51.9368ZM30.5808 45.0816C30.5413 45.0816 30.5215 45.1013 30.5215 45.1409V51.1861C30.5215 51.2256 30.5413 51.2454 30.5808 51.2454H36.626C36.6656 51.2454 36.6853 51.2256 36.6853 51.1861V45.1409C36.6853 45.1013 36.6656 45.0816 36.626 45.0816H30.5808Z" fill="white"/>
<path d="M56.0076 51.1861C56.0076 51.4231 55.8298 51.6009 55.6125 51.6009H49.5475C49.3301 51.6009 49.1523 51.4231 49.1523 51.1861V45.1408C49.1523 44.9037 49.3301 44.726 49.5475 44.726H55.6125C55.8298 44.726 56.0076 44.9037 56.0076 45.1408V51.1861Z" fill="#383636"/>
<path d="M27.2429 51.6404L20.6445 45.042L21.1384 44.5481L27.7368 51.1465L27.2429 51.6404Z" fill="white"/>
<path d="M30.4236 51.838L29.9297 51.3441L36.6466 44.6074L37.1603 45.1211L30.4236 51.838Z" fill="white"/>
<path fill-rule="evenodd" clip-rule="evenodd" d="M52.5497 50.3564C51.2853 50.3564 50.2383 49.3291 50.2383 48.0647C50.2383 46.8004 51.2853 45.7533 52.5497 45.7533C53.8141 45.7533 54.8414 46.8004 54.8414 48.0647C54.8414 49.3291 53.8141 50.3564 52.5497 50.3564ZM52.5497 46.4645C51.6607 46.4645 50.9495 47.1757 50.9495 48.0647C50.9495 48.9537 51.6607 49.6649 52.5497 49.6649C53.419 49.6649 54.1499 48.9537 54.1499 48.0647C54.1499 47.1757 53.419 46.4645 52.5497 46.4645Z" fill="white"/>
<path d="M46.5252 51.1861C46.5252 51.4231 46.3474 51.6009 46.13 51.6009H40.065C39.8477 51.6009 39.6699 51.4231 39.6699 51.1861V45.1408C39.6699 44.9037 39.8477 44.726 40.065 44.726H46.13C46.3474 44.726 46.5252 44.9037 46.5252 45.1408V51.1861Z" fill="#383636"/>
<path fill-rule="evenodd" clip-rule="evenodd" d="M46.1282 51.9368H40.0632C39.6483 51.9368 39.3125 51.601 39.3125 51.1861V45.1409C39.3125 44.726 39.6483 44.3901 40.0632 44.3901H46.1282C46.5431 44.3901 46.8789 44.726 46.8789 45.1409V51.1861C46.8789 51.601 46.5431 51.9368 46.1282 51.9368ZM40.0632 45.0816C40.0435 45.0816 40.0039 45.1013 40.0039 45.1409V51.1861C40.0039 51.2256 40.0435 51.2454 40.0632 51.2454H46.1282C46.148 51.2454 46.1677 51.2256 46.1677 51.1861V45.1409C46.1677 45.1013 46.148 45.0816 46.1282 45.0816H40.0632Z" fill="white"/>
<path d="M46.6182 52.1121L40 45.5137L40.5137 45L47.1121 51.6182L46.6182 52.1121Z" fill="white"/>
<rect x="46.25" y="62.25" width="15.5" height="5.5" rx="2.75" stroke="#ED313A" stroke-width="0.5"/>
</g>
<defs>
<clipPath id="clip0_713_1151">
<rect width="102" height="72" fill="white"/>
</clipPath>
</defs>
</svg>
