<svg width="28" height="28" viewBox="0 0 28 28" fill="none" xmlns="http://www.w3.org/2000/svg">
<path d="M11.6673 22.0885H16.334C16.4887 22.0885 16.6371 22.0271 16.7465 21.9177C16.8559 21.8083 16.9173 21.6599 16.9173 21.5052C16.9173 21.3505 16.8559 21.2021 16.7465 21.0927C16.6371 20.9833 16.4887 20.9219 16.334 20.9219H11.6673C11.5126 20.9219 11.3642 20.9833 11.2548 21.0927C11.1454 21.2021 11.084 21.3505 11.084 21.5052C11.084 21.6599 11.1454 21.8083 11.2548 21.9177C11.3642 22.0271 11.5126 22.0885 11.6673 22.0885Z" fill="#ED313A"/>
<path d="M19.5145 25.5931H8.48485C7.75289 25.5494 7.06779 25.2185 6.5786 24.6722C6.08941 24.126 5.8357 23.4087 5.87268 22.6764V5.32341C5.8357 4.59108 6.08941 3.87378 6.5786 3.32756C7.06779 2.78135 7.75289 2.4504 8.48485 2.40674H19.5145C20.2465 2.4504 20.9316 2.78135 21.4208 3.32756C21.91 3.87378 22.1637 4.59108 22.1267 5.32341V22.6764C22.1637 23.4087 21.91 24.126 21.4208 24.6722C20.9316 25.2185 20.2465 25.5494 19.5145 25.5931ZM8.48485 3.5734C8.06285 3.61798 7.67514 3.82619 7.4049 4.15336C7.13466 4.48052 7.00342 4.90058 7.03935 5.32341V22.6764C7.00342 23.0992 7.13466 23.5193 7.4049 23.8465C7.67514 24.1736 8.06285 24.3818 8.48485 24.4264H19.5145C19.9365 24.3818 20.3242 24.1736 20.5945 23.8465C20.8647 23.5193 20.9959 23.0992 20.96 22.6764V5.32341C20.9959 4.90058 20.8647 4.48052 20.5945 4.15336C20.3242 3.82619 19.9365 3.61798 19.5145 3.5734H8.48485Z" fill="#ED313A"/>
</svg>
