<svg width="28" height="28" viewBox="0 0 28 28" fill="none" xmlns="http://www.w3.org/2000/svg">
<path d="M22.8703 9.69043C22.575 9.59199 22.2797 9.49902 21.9844 9.41152C22.0336 9.20918 22.0773 9.00684 22.1211 8.80449C22.7938 5.54512 22.3508 2.92559 20.8578 2.06152C19.4195 1.23574 17.0734 2.09434 14.7 4.16152C14.4648 4.36387 14.2352 4.57715 14.0164 4.79043C13.8687 4.64824 13.7156 4.50605 13.5625 4.36934C11.0742 2.15996 8.58047 1.23027 7.0875 2.0998C5.65469 2.93105 5.22813 5.39746 5.82969 8.48184C5.88984 8.78809 5.95547 9.08887 6.03203 9.39512C5.68203 9.49355 5.3375 9.60293 5.01484 9.71777C2.09453 10.7295 0 12.3264 0 13.9779C0 15.6842 2.23125 17.3959 5.26641 18.435C5.5125 18.517 5.75859 18.599 6.01016 18.6701C5.92812 18.9982 5.85703 19.3209 5.79141 19.6545C5.21719 22.6896 5.66563 25.0959 7.09844 25.9217C8.575 26.7748 11.0578 25.8998 13.475 23.7834C13.6664 23.6139 13.8578 23.4389 14.0492 23.2529C14.2898 23.4881 14.5414 23.7123 14.793 23.9311C17.1336 25.9436 19.4469 26.7584 20.8742 25.9326C22.3508 25.0795 22.832 22.4928 22.2086 19.3428C22.1594 19.1021 22.1047 18.8561 22.0445 18.6045C22.2195 18.5553 22.3891 18.5006 22.5586 18.4459C25.7141 17.4014 28 15.7115 28 13.9779C28 12.3209 25.8453 10.7131 22.8703 9.69043ZM15.4711 5.04746C17.5055 3.27559 19.4031 2.58105 20.2672 3.07871C21.1914 3.60918 21.5469 5.75293 20.9672 8.56934C20.9289 8.75527 20.8906 8.93574 20.8414 9.11621C19.6273 8.84277 18.3969 8.6459 17.1609 8.53652C16.45 7.51934 15.6734 6.5459 14.8313 5.63262C15.0445 5.43027 15.2523 5.23887 15.4711 5.04746ZM9.14375 16.8162C9.42266 17.292 9.70703 17.7678 10.0078 18.2326C9.15469 18.1396 8.30703 18.0029 7.47031 17.8225C7.71094 17.035 8.01172 16.2201 8.36172 15.3889C8.61328 15.8701 8.87031 16.3459 9.14375 16.8162ZM7.48672 10.2373C8.27422 10.0623 9.11094 9.92012 9.98047 9.81074C9.69063 10.2646 9.40625 10.7295 9.13828 11.1998C8.87031 11.6646 8.60781 12.1404 8.36172 12.6217C8.01719 11.8068 7.72734 11.0084 7.48672 10.2373ZM8.98516 14.0053C9.34609 13.2506 9.73984 12.5123 10.1555 11.785C10.5711 11.0576 11.0195 10.3521 11.4898 9.65762C12.3102 9.59746 13.1469 9.56465 14 9.56465C14.8531 9.56465 15.6953 9.59746 16.5102 9.65762C16.975 10.3467 17.418 11.0521 17.8391 11.774C18.4707 12.8568 18.6539 13.2342 19.0258 13.9834C18.6594 14.7381 18.2656 15.4818 17.8445 16.2146C17.4289 16.942 16.9859 17.6475 16.5211 18.3475C15.7063 18.4076 14.8586 18.435 14 18.435C13.1414 18.435 12.3102 18.4076 11.5062 18.3584C11.0305 17.6639 10.582 16.9529 10.1609 16.2256C9.5293 15.1346 9.35156 14.76 8.98516 14.0053ZM18.8617 16.8053C19.1406 16.324 19.4031 15.8373 19.6602 15.3451C20.0102 16.1381 20.3164 16.942 20.5844 17.7678C19.7367 17.9592 18.8781 18.1068 18.0141 18.2053C18.3094 17.7459 18.5883 17.2756 18.8617 16.8053ZM19.6492 12.6217C19.3922 12.1404 19.1297 11.6592 18.8562 11.1889C18.5883 10.724 18.3094 10.2646 18.0195 9.81074C18.9 9.92012 19.7422 10.0678 20.5297 10.2482C20.2781 11.0576 19.9828 11.8451 19.6492 12.6217ZM14.0109 6.46934C14.5852 7.09277 15.1266 7.74902 15.6297 8.42715C14.5469 8.37793 13.4586 8.37793 12.3758 8.42715C12.9117 7.72168 13.4641 7.06543 14.0109 6.46934ZM7.66719 3.11699C8.58594 2.58105 10.6258 3.34668 12.775 5.2498C12.9117 5.37012 13.0484 5.50137 13.1906 5.63262C12.343 6.5459 11.5609 7.51934 10.8445 8.53652C9.60859 8.6459 8.38359 8.8373 7.16953 9.10527C7.09844 8.82637 7.03828 8.54199 6.97813 8.25762C6.46406 5.61074 6.80312 3.61465 7.66719 3.11699ZM6.32734 17.5326C6.09766 17.467 5.87344 17.3959 5.64922 17.3193C4.48438 16.9529 3.16094 16.3732 2.20391 15.6131C1.65156 15.2303 1.27969 14.6396 1.17578 13.9779C1.17578 12.9771 2.90391 11.6975 5.39766 10.8279C5.70937 10.7186 6.02656 10.6201 6.34375 10.5271C6.71562 11.7139 7.16406 12.8787 7.68359 14.0053C7.15859 15.1482 6.70469 16.3295 6.32734 17.5326ZM12.7039 22.892C11.8016 23.7178 10.757 24.374 9.61953 24.8225C9.0125 25.1123 8.3125 25.1396 7.68906 24.8936C6.81953 24.3904 6.45859 22.46 6.95078 19.8623C7.01094 19.5561 7.07656 19.2498 7.15313 18.949C8.37813 19.2115 9.61406 19.392 10.8664 19.485C11.5883 20.5076 12.3812 21.4865 13.2289 22.4053C13.0539 22.5748 12.8789 22.7389 12.7039 22.892ZM14.0437 21.5631C13.4859 20.9615 12.9281 20.2943 12.3867 19.5779C12.9117 19.5998 13.4531 19.6107 14 19.6107C14.5633 19.6107 15.1156 19.5998 15.6625 19.5725C15.1594 20.267 14.618 20.9287 14.0437 21.5631ZM21.1914 23.2037C21.1422 23.8709 20.8141 24.4943 20.2891 24.9154C19.4195 25.4186 17.5656 24.7623 15.5641 23.0451C15.3344 22.8482 15.1047 22.635 14.8695 22.4162C15.7062 21.492 16.4773 20.5131 17.1773 19.485C18.4297 19.3811 19.6766 19.1896 20.907 18.9107C20.9617 19.135 21.0109 19.3592 21.0547 19.5779C21.3227 20.7592 21.3664 21.9896 21.1914 23.2037ZM22.1867 17.3248C22.0336 17.374 21.8805 17.4232 21.7219 17.467C21.3391 16.2748 20.8688 15.11 20.3273 13.9779C20.8523 12.8623 21.2953 11.7139 21.6672 10.5381C21.9516 10.6201 22.225 10.7076 22.4875 10.7951C25.0359 11.6701 26.8242 12.9717 26.8242 13.967C26.8242 15.0389 24.9156 16.4225 22.1867 17.3248ZM14 16.5045C14.6643 16.5045 15.3014 16.2406 15.7711 15.7709C16.2408 15.3012 16.5047 14.6641 16.5047 13.9998C16.5047 13.3355 16.2408 12.6984 15.7711 12.2287C15.3014 11.759 14.6643 11.4951 14 11.4951C13.3357 11.4951 12.6986 11.759 12.2289 12.2287C11.7592 12.6984 11.4953 13.3355 11.4953 13.9998C11.4953 14.6641 11.7592 15.3012 12.2289 15.7709C12.6986 16.2406 13.3357 16.5045 14 16.5045Z" fill="white"/>
</svg>
