<svg width="102" height="72" viewBox="0 0 102 72" fill="none" xmlns="http://www.w3.org/2000/svg">
<g clip-path="url(#clip0_713_1376)">
<path d="M0.75 42.7261C0.743604 39.8368 1.49171 36.9962 2.91895 34.4878C4.34617 31.9796 6.40288 29.8912 8.88379 28.4302L9.4541 28.0942L9.19141 27.4858C8.15539 25.0903 7.62242 22.5059 7.625 19.894V19.8931C7.625 9.347 16.1506 0.80127 26.6631 0.80127C32.8345 0.801279 38.3195 3.7467 41.7988 8.31494L42.3311 9.01318L42.9375 8.37842C46.0898 5.08035 50.472 3.04053 55.3145 3.04053C61.7503 3.04059 67.3762 6.64344 70.377 12.0122L70.7119 12.6118L71.3389 12.3306C74.0369 11.1203 76.9593 10.4967 79.9141 10.5005H79.915C91.6214 10.5005 101.128 20.1157 101.128 31.9966C101.128 43.879 91.6214 53.4946 79.915 53.4946C78.5126 53.4954 77.113 53.3555 75.7383 53.0767L75.2012 52.9673L74.9336 53.4458C72.308 58.1479 67.3091 61.3188 61.5752 61.3188H61.5742C59.2551 61.322 56.9655 60.7938 54.8809 59.7729L54.1699 59.4243L53.8604 60.1538C51.1835 66.4758 44.9493 70.9038 37.6885 70.9038C30.1278 70.9036 23.6795 66.0996 21.2031 59.355L20.9785 58.7446L20.3418 58.8804C19.2665 59.11 18.1509 59.2299 17.0049 59.23C8.03844 59.23 0.750189 51.8527 0.75 42.728V42.7261Z" stroke="white" stroke-width="1.5"/>
<path d="M14.7574 37.1825C14.6936 37.3501 14.7805 37.3849 14.8012 37.4145C14.9924 37.5541 15.1868 37.6545 15.3828 37.7665C16.4221 38.3205 17.4029 38.4825 18.429 38.4825C20.5188 38.4825 21.8163 37.3665 21.8163 35.5693V35.5345C21.8163 33.8733 20.3519 33.2697 18.9776 32.8345L18.7991 32.7757C17.763 32.4377 16.8691 32.1465 16.8691 31.4613V31.4253C16.8691 30.8393 17.3913 30.4077 18.2012 30.4077C19.1011 30.4077 20.1691 30.7077 20.857 31.0897C20.857 31.0897 21.0586 31.2209 21.1327 31.0241C21.1733 30.9193 21.5215 29.9781 21.5582 29.8761C21.5972 29.7653 21.5275 29.6837 21.4566 29.6401C20.6714 29.1601 19.5859 28.8325 18.4625 28.8325L18.2534 28.8341C16.3408 28.8341 15.0055 29.9941 15.0055 31.6569V31.6917C15.0055 33.4449 16.4787 34.0129 17.8586 34.4093L18.0809 34.4781C19.0863 34.7881 19.9532 35.0549 19.9532 35.7661V35.8009C19.9532 36.4509 19.3899 36.9349 18.4812 36.9349C18.1287 36.9349 17.0041 36.9277 15.7891 36.1565C15.6425 36.0705 15.5569 36.0081 15.4437 35.9397C15.384 35.9017 15.235 35.8357 15.1697 36.0341L14.7574 37.1825ZM45.3514 37.1825C45.2876 37.3501 45.3745 37.3849 45.3952 37.4145C45.5864 37.5541 45.7808 37.6545 45.9768 37.7665C47.0157 38.3205 47.9969 38.4825 49.0231 38.4825C51.1129 38.4825 52.4103 37.3665 52.4103 35.5693V35.5345C52.4103 33.8733 50.9459 33.2697 49.5716 32.8345L49.3931 32.7757C48.357 32.4377 47.4627 32.1465 47.4627 31.4613V31.4253C47.4627 30.8393 47.9853 30.4077 48.7952 30.4077C49.6951 30.4077 50.7631 30.7077 51.4511 31.0897C51.4511 31.0897 51.6526 31.2209 51.7267 31.0241C51.7674 30.9193 52.1155 29.9781 52.1518 29.8761C52.1912 29.7653 52.1215 29.6837 52.0502 29.6401C51.2654 29.1601 50.1795 28.8325 49.0565 28.8325L48.8474 28.8341C46.9345 28.8341 45.5996 29.9941 45.5996 31.6569V31.6917C45.5996 33.4449 47.0723 34.0129 48.4526 34.4093L48.6745 34.4781C49.6804 34.7881 50.5484 35.0549 50.5484 35.7661V35.8009C50.5484 36.4509 49.9835 36.9349 49.0753 36.9349C48.1219 36.9418 47.1869 36.6714 46.3831 36.1565C46.2365 36.0705 46.1493 36.0109 46.0394 35.9397C46.0015 35.9149 45.8242 35.8461 45.7633 36.0341L45.3514 37.1825ZM66.237 33.6629C66.237 34.6789 66.0482 35.4789 65.6769 36.0441C65.3096 36.6041 64.7539 36.8761 63.9787 36.8761C63.2023 36.8761 62.6494 36.6053 62.288 36.0441C61.9223 35.4801 61.7367 34.6789 61.7367 33.6629C61.7367 32.6489 61.9223 31.8501 62.288 31.2909C62.6494 30.7369 63.2023 30.4673 63.9787 30.4673C64.7539 30.4673 65.3092 30.7369 65.6781 31.2905C66.0486 31.8505 66.237 32.6489 66.237 33.6629ZM67.9814 31.7801C67.8101 31.1989 67.5432 30.6861 67.1875 30.2589C66.8317 29.8305 66.382 29.4869 65.8478 29.2361C65.3152 28.9869 64.6854 28.8601 63.9787 28.8601C63.2704 28.8601 62.6406 28.9869 62.108 29.2361C61.5742 29.4865 61.124 29.8305 60.7671 30.2589C60.413 30.6873 60.1457 31.2005 59.9732 31.7801C59.8035 32.3589 59.7182 32.9913 59.7182 33.6629C59.7182 34.3349 59.8035 34.9689 59.9732 35.5457C60.1461 36.1257 60.4114 36.6385 60.7687 37.0673C61.133 37.5027 61.5909 37.8494 62.108 38.0813C62.6418 38.3249 63.2704 38.4485 63.9787 38.4485C64.6854 38.4485 65.314 38.3245 65.8478 38.0813C66.365 37.8494 66.823 37.5027 67.1875 37.0673C67.5432 36.6401 67.8101 36.1273 67.9814 35.5457C68.1527 34.9673 68.2383 34.3337 68.2383 33.6629C68.2383 32.9929 68.1527 32.3589 67.9814 31.7801ZM82.306 36.6053C82.2483 36.4349 82.0841 36.4989 82.0841 36.4989C81.8304 36.5965 81.5603 36.6869 81.2731 36.7321C80.9564 36.779 80.6367 36.8019 80.3166 36.8005C79.4721 36.8005 78.8013 36.5485 78.3208 36.0501C77.8392 35.5517 77.5691 34.7461 77.5719 33.6557C77.5751 32.6637 77.8133 31.9173 78.2412 31.3489C78.6666 30.7837 79.3136 30.4937 80.1772 30.4937C80.897 30.4937 81.4456 30.5765 82.0204 30.7589C82.0204 30.7589 82.1582 30.8189 82.2236 30.6377C82.3757 30.2125 82.4893 29.9077 82.6518 29.4401C82.698 29.3073 82.5849 29.2505 82.5442 29.2345C82.318 29.1457 81.7838 29.0013 81.3802 28.9401C81.003 28.8821 80.562 28.8513 80.0712 28.8513C79.3382 28.8513 78.6853 28.9765 78.1264 29.2273C77.5691 29.4765 77.0963 29.8205 76.7218 30.2489C76.3474 30.6773 76.0629 31.1901 75.8729 31.7701C75.6841 32.3485 75.5885 32.9841 75.5885 33.6557C75.5885 35.1085 75.9789 36.2833 76.7493 37.1429C77.5213 38.0057 78.6813 38.4441 80.1931 38.4441C81.087 38.4441 82.0045 38.2621 82.6629 38.0013C82.6629 38.0013 82.7896 37.9401 82.7347 37.7929L82.306 36.6053ZM85.3587 32.6901C85.4411 32.1261 85.5965 31.6569 85.8359 31.2913C86.1972 30.7361 86.7485 30.4313 87.5237 30.4313C88.2985 30.4313 88.8108 30.7373 89.1781 31.2913C89.4219 31.6569 89.5279 32.1465 89.5697 32.6901H85.3587ZM91.2317 31.4501C91.0835 30.8889 90.7162 30.3221 90.4756 30.0629C90.0951 29.6517 89.7239 29.3645 89.355 29.2045C88.8199 28.9762 88.2442 28.8592 87.6628 28.8605C86.9258 28.8605 86.2566 28.9845 85.714 29.2405C85.1698 29.4973 84.7125 29.8469 84.354 30.2829C83.9955 30.7169 83.7258 31.2345 83.5545 31.8217C83.3816 32.4057 83.2948 33.0429 83.2948 33.7145C83.2948 34.3981 83.3848 35.0345 83.5632 35.6073C83.7429 36.1845 84.0305 36.6933 84.4197 37.1141C84.8069 37.5381 85.3061 37.8705 85.904 38.1021C86.4976 38.3325 87.2186 38.4521 88.0472 38.4505C89.7526 38.4445 90.6513 38.0629 91.0209 37.8573C91.0863 37.8213 91.1488 37.7569 91.0703 37.5733L90.6843 36.4877C90.6266 36.3257 90.4624 36.3857 90.4624 36.3857C90.0402 36.5429 89.4395 36.8257 88.0388 36.8229C87.123 36.8213 86.4438 36.5501 86.0187 36.1261C85.5817 35.6921 85.3686 35.0541 85.3308 34.1533L91.2361 34.1589C91.2361 34.1589 91.3914 34.1561 91.4073 34.0045C91.4129 33.9405 91.6105 32.7861 91.2317 31.4501ZM38.0666 32.6901C38.1506 32.1261 38.3044 31.6569 38.5442 31.2913C38.9055 30.7361 39.4569 30.4313 40.2317 30.4313C41.0069 30.4313 41.5192 30.7373 41.8876 31.2913C42.1302 31.6569 42.2362 32.1465 42.278 32.6901H38.0666ZM43.9384 31.4501C43.7902 30.8889 43.4245 30.3221 43.1835 30.0629C42.8035 29.6517 42.4318 29.3645 42.0633 29.2045C41.5282 28.9762 40.9525 28.8592 40.3711 28.8605C39.6353 28.8605 38.9649 28.9845 38.4223 29.2405C37.8778 29.4973 37.4208 29.8469 37.0623 30.2829C36.7038 30.7169 36.4341 31.2345 36.2628 31.8217C36.0915 32.4057 36.0031 33.0429 36.0031 33.7145C36.0031 34.3981 36.0927 35.0345 36.2716 35.6073C36.4512 36.1845 36.7388 36.6933 37.1276 37.1141C37.5153 37.5381 38.0144 37.8705 38.6123 38.1021C39.2059 38.3325 39.9269 38.4521 40.7555 38.4505C42.4609 38.4445 43.3592 38.0629 43.7293 37.8573C43.7946 37.8213 43.8567 37.7569 43.7787 37.5733L43.3942 36.4877C43.3345 36.3257 43.1708 36.3857 43.1708 36.3857C42.7485 36.5429 42.149 36.8257 40.7456 36.8229C39.8313 36.8213 39.1521 36.5501 38.7271 36.1261C38.2901 35.6921 38.0765 35.0541 38.0391 34.1533L43.944 34.1589C43.944 34.1589 44.0993 34.1561 44.1153 34.0045C44.1213 33.9405 44.3184 32.7861 43.9384 31.4501ZM25.3027 36.5725C25.0717 36.3877 25.0398 36.3409 24.9617 36.2213C24.8454 36.0393 24.7861 35.7797 24.7861 35.4505C24.7861 34.9289 24.9574 34.5545 25.3127 34.3025C25.3087 34.3037 25.8206 33.8577 27.0256 33.8737C27.8714 33.8857 28.6274 34.0109 28.6274 34.0109V36.7069H28.629C28.629 36.7069 27.8785 36.8685 27.034 36.9193C25.8322 36.9921 25.2984 36.5713 25.3027 36.5725ZM27.6523 32.4065C27.4129 32.3889 27.1025 32.3785 26.7309 32.3785C26.2241 32.3785 25.735 32.4425 25.2768 32.5665C24.8344 32.6816 24.4165 32.8762 24.0431 33.1409C23.6866 33.3963 23.3935 33.7309 23.1867 34.1185C22.9779 34.5093 22.872 34.9697 22.872 35.4853C22.872 36.0101 22.9616 36.4661 23.1416 36.8393C23.3172 37.2082 23.5823 37.5269 23.9125 37.7661C24.2403 38.0065 24.6454 38.1829 25.1155 38.2893C25.5784 38.3957 26.1034 38.4493 26.6783 38.4493C27.2838 38.4493 27.8873 38.4001 28.4721 38.2993C28.9698 38.2133 29.4657 38.1171 29.9596 38.0109C30.1556 37.9641 30.3735 37.9045 30.3735 37.9045C30.5201 37.8681 30.5081 37.7105 30.5081 37.7105L30.5053 32.2885C30.5053 31.0993 30.189 30.2177 29.5664 29.6713C28.9469 29.1261 28.0339 28.8509 26.854 28.8509C26.4118 28.8509 25.6987 28.9121 25.2725 28.9981C25.2725 28.9981 23.9818 29.2485 23.4508 29.6653C23.4508 29.6653 23.3348 29.7381 23.3986 29.9013L23.8169 31.0293C23.8686 31.1749 24.0097 31.1253 24.0097 31.1253C24.0097 31.1253 24.0547 31.1081 24.1069 31.0773C25.243 30.4565 26.6799 30.4757 26.6799 30.4757C27.3184 30.4757 27.8088 30.6037 28.1399 30.8589C28.4621 31.1065 28.6259 31.4809 28.6259 32.2709V32.5213C28.1179 32.4485 27.6523 32.4065 27.6523 32.4065ZM75.2802 29.3509C75.2887 29.3311 75.2931 29.3098 75.2933 29.2883C75.2934 29.2667 75.2892 29.2454 75.2809 29.2255C75.2726 29.2056 75.2604 29.1877 75.245 29.1726C75.2296 29.1576 75.2113 29.1459 75.1913 29.1381C75.0913 29.0989 74.589 28.9925 74.2014 28.9677C73.46 28.9225 73.0477 29.0477 72.6793 29.2141C72.3136 29.3801 71.9072 29.6481 71.6806 29.9529V29.2313C71.6806 29.1309 71.6097 29.0509 71.5109 29.0509H69.9971C69.8987 29.0509 69.8274 29.1309 69.8274 29.2313V38.0753C69.8274 38.1745 69.9087 38.2561 70.0075 38.2561H71.5587C71.5822 38.256 71.6055 38.2513 71.6272 38.2421C71.6489 38.233 71.6686 38.2196 71.6852 38.2028C71.7018 38.186 71.7149 38.1661 71.7238 38.1443C71.7327 38.1224 71.7372 38.099 71.7371 38.0753V33.6569C71.7371 33.0641 71.8025 32.4721 71.9331 32.1009C72.0606 31.7333 72.2351 31.4393 72.4498 31.2277C72.6549 31.0249 72.9053 30.8741 73.18 30.7877C73.4541 30.7033 73.7576 30.6757 73.9723 30.6757C74.2815 30.6757 74.6209 30.7557 74.6209 30.7557C74.734 30.7689 74.7981 30.6989 74.836 30.5957C74.9372 30.3245 75.2248 29.5125 75.2798 29.3509" fill="white"/>
<path d="M60.716 25.2514C60.5243 25.1935 60.3294 25.1467 60.1324 25.1114C59.8672 25.0678 59.5988 25.0474 59.3301 25.0506C58.2617 25.0506 57.4199 25.3534 56.8296 25.951C56.2416 26.5454 55.8424 27.4506 55.6425 28.641L55.5696 29.0418H54.2287C54.2287 29.0418 54.0662 29.0358 54.0315 29.2138L53.8124 30.4482C53.7965 30.5646 53.8471 30.639 54.0036 30.639H55.3086L53.9849 38.059C53.8821 38.6566 53.763 39.1478 53.6307 39.5206C53.5017 39.8878 53.3758 40.1634 53.2188 40.3646C53.0675 40.5566 52.9257 40.6998 52.6787 40.7826C52.4755 40.8514 52.2405 40.8834 51.9835 40.8834C51.8413 40.8834 51.6513 40.8598 51.5107 40.831C51.4004 40.8094 51.2931 40.7745 51.1912 40.727C51.1912 40.727 51.039 40.669 50.9781 40.8222C50.9303 40.949 50.5817 41.909 50.5399 42.0274C50.4992 42.1454 50.557 42.237 50.6311 42.2646C50.8052 42.3258 50.9343 42.3666 51.1709 42.4234C51.4991 42.501 51.7764 42.505 52.0361 42.505C52.5787 42.505 53.075 42.4278 53.4857 42.2794C53.8981 42.1294 54.2578 41.8682 54.5773 41.5154C54.921 41.1338 55.1374 40.7346 55.3433 40.1882C55.5481 39.649 55.7237 38.9786 55.8628 38.1978L57.1937 30.639H59.1385C59.1385 30.639 59.3022 30.6446 59.3357 30.4654L59.5564 29.2326C59.5707 29.1146 59.5217 29.0418 59.3631 29.0418H57.4749C57.4853 28.9994 57.5709 28.3322 57.7872 27.7042C57.8801 27.4374 58.0541 27.2202 58.2007 27.0718C58.3388 26.9305 58.5086 26.8245 58.6959 26.7626C58.8831 26.7014 59.0962 26.6722 59.3301 26.6722C59.507 26.6722 59.6826 26.6926 59.8145 26.7202C59.9977 26.7598 60.0686 26.7802 60.1164 26.7946C60.3097 26.853 60.3355 26.7962 60.3734 26.7026L60.8247 25.4586C60.8713 25.3246 60.7566 25.2674 60.716 25.2514ZM34.3358 38.0754C34.3358 38.1742 34.2645 38.2546 34.1661 38.2546H32.6001C32.5014 38.2546 32.4316 38.1746 32.4316 38.0754V25.4206C32.4316 25.3218 32.5014 25.2414 32.6001 25.2414H34.1657C34.2645 25.2414 34.3358 25.3214 34.3358 25.4206V38.0754Z" fill="#ED313A"/>
</g>
<defs>
<clipPath id="clip0_713_1376">
<rect width="102" height="72" fill="white"/>
</clipPath>
</defs>
</svg>
